<svg width="300" height="105" viewBox="0 0 300 105" fill="none" xmlns="http://www.w3.org/2000/svg">
<mask id="mask0_65_4" style="mask-type:luminance" maskUnits="userSpaceOnUse" x="1" y="1" width="298" height="103">
<path d="M281.818 10.0362C281.818 14.6108 285.297 18.5143 290.148 18.5143C294.734 18.5143 298.349 14.6108 298.349 10.0362C298.349 5.44503 294.734 1.85397 290.148 1.85397C285.297 1.85397 281.818 5.44503 281.818 10.0362ZM118.492 10.0297V30.8427C113.913 28.7597 106.982 26.8263 100.306 26.8263C82.4124 26.8263 72.1347 37.4937 70.5962 54.7155C70.1842 59.7253 70.1842 69.5788 70.5962 74.439C72.1347 91.4948 83.5056 103.036 102.253 103.036C115.714 103.036 126.955 97.0494 130.574 94.3983C132.8 92.8868 133.222 91.352 133.222 88.8504V10.0297C133.222 5.87041 130.012 2.53162 125.849 2.53162C121.838 2.53162 118.492 5.87041 118.492 10.0297ZM85.2999 72.6151C84.9012 68.3163 85.0308 60.1406 85.2999 56.3766C85.8748 46.2574 90.869 40.9718 101.416 40.9718C108.65 40.9718 115.585 43.4801 118.492 45.2873V83.8571C115.714 85.9534 108.507 88.8504 102.529 88.8504C91.8327 88.8504 86.1506 83.3057 85.2999 72.6151ZM213.832 34.4507C211.762 35.8493 210.901 37.2412 210.901 40.1381V94.6773C210.901 98.8466 214.377 102.189 218.278 102.189C222.428 102.189 225.638 98.8466 225.638 94.6773V44.8787C228.805 42.9253 235.344 40.9718 242.133 40.9718C250.755 40.9718 258.265 45.7026 258.265 56.8085V94.6773C258.265 98.8466 261.721 102.189 265.609 102.189C269.925 102.189 272.976 98.8466 272.976 94.6773V56.1075C272.976 37.3608 262.691 26.8263 242.568 26.8263C227.994 26.8263 217.852 31.4076 213.832 34.4507ZM151.099 30.9722C147.354 32.6499 146.228 35.424 146.228 37.7927C146.228 42.0915 150.269 45.2874 156.376 43.3373C160.267 41.9487 165.823 40.2875 171.512 40.2875C182.324 40.2875 186.92 44.3139 186.92 53.7488V58.3201C180.527 56.8086 175.792 55.9812 169.279 55.9812C149.85 55.9812 141.098 66.9475 141.098 79.0134C141.098 92.6175 150.528 103.036 169.551 103.036C183.996 103.036 194.556 97.8765 198.45 95.252C200.524 93.8534 201.075 92.3453 201.075 89.8371V53.7488C201.075 35.0053 190.103 26.8263 172.336 26.8263C163.889 26.8263 155.13 29.0288 151.099 30.9722ZM155.539 78.4721C155.539 71.8012 161.639 68.0405 170.109 68.0405C176.37 68.0405 180.809 68.881 186.92 70.3959V85.8205C185.521 86.9135 180.4 90.1228 170.811 90.1228C160.958 90.1228 155.539 85.9535 155.539 78.4721ZM11.8779 30.9722C8.13631 32.6499 7.00652 35.424 7.00652 37.7927C7.00652 42.0915 11.0405 45.2874 17.1546 43.3373C21.0423 41.9487 26.6081 40.2875 32.2836 40.2875C43.1228 40.2875 47.6984 44.3139 47.6984 53.7488V58.3201C41.3052 56.8086 36.59 55.9812 30.0639 55.9812C11.2897 55.9812 2.49075 66.2234 1.91589 77.7877V80.3357C2.51069 93.2787 11.9377 103.036 30.3331 103.036C44.7908 103.036 55.3277 97.8765 59.232 95.252C61.3088 93.8534 61.8571 92.3453 61.8571 89.8371V53.7488C61.8571 35.0053 50.885 26.8263 33.1209 26.8263C24.6509 26.8263 15.9118 29.0288 11.8779 30.9722ZM16.3305 78.4721C16.3305 71.8012 22.428 68.0405 30.8979 68.0405C37.1416 68.0405 41.5976 68.881 47.6984 70.3959V85.8205C46.3161 86.9135 41.1623 90.1228 31.5858 90.1228C21.7368 90.1228 16.3305 85.9535 16.3305 78.4721ZM282.788 35.5801V94.973C282.788 99.1389 286.264 102.484 290.148 102.484C294.308 102.484 297.525 99.1389 297.525 94.973V35.5801C297.525 31.4208 294.179 28.082 290.148 28.082C285.981 28.082 282.788 31.4208 282.788 35.5801Z" fill="white"/>
</mask>
<g mask="url(#mask0_65_4)">
<path d="M281.818 10.0362C281.818 14.6108 285.297 18.5143 290.148 18.5143C294.734 18.5143 298.349 14.6108 298.349 10.0362C298.349 5.44503 294.734 1.85397 290.148 1.85397C285.297 1.85397 281.818 5.44503 281.818 10.0362ZM118.492 10.0297V30.8427C113.913 28.7597 106.982 26.8263 100.306 26.8263C82.4124 26.8263 72.1347 37.4937 70.5962 54.7155C70.1842 59.7253 70.1842 69.5788 70.5962 74.439C72.1347 91.4948 83.5056 103.036 102.253 103.036C115.714 103.036 126.955 97.0494 130.574 94.3983C132.8 92.8868 133.222 91.352 133.222 88.8504V10.0297C133.222 5.87041 130.012 2.53162 125.849 2.53162C121.838 2.53162 118.492 5.87041 118.492 10.0297ZM85.2999 72.6151C84.9012 68.3163 85.0308 60.1406 85.2999 56.3766C85.8748 46.2574 90.869 40.9718 101.416 40.9718C108.65 40.9718 115.585 43.4801 118.492 45.2873V83.8571C115.714 85.9534 108.507 88.8504 102.529 88.8504C91.8327 88.8504 86.1506 83.3057 85.2999 72.6151ZM213.832 34.4507C211.762 35.8493 210.901 37.2412 210.901 40.1381V94.6773C210.901 98.8466 214.377 102.189 218.278 102.189C222.428 102.189 225.638 98.8466 225.638 94.6773V44.8787C228.805 42.9253 235.344 40.9718 242.133 40.9718C250.755 40.9718 258.265 45.7026 258.265 56.8085V94.6773C258.265 98.8466 261.721 102.189 265.609 102.189C269.925 102.189 272.976 98.8466 272.976 94.6773V56.1075C272.976 37.3608 262.691 26.8263 242.568 26.8263C227.994 26.8263 217.852 31.4076 213.832 34.4507ZM151.099 30.9722C147.354 32.6499 146.228 35.424 146.228 37.7927C146.228 42.0915 150.269 45.2874 156.376 43.3373C160.267 41.9487 165.823 40.2875 171.512 40.2875C182.324 40.2875 186.92 44.3139 186.92 53.7488V58.3201C180.527 56.8086 175.792 55.9812 169.279 55.9812C149.85 55.9812 141.098 66.9475 141.098 79.0134C141.098 92.6175 150.528 103.036 169.551 103.036C183.996 103.036 194.556 97.8765 198.45 95.252C200.524 93.8534 201.075 92.3453 201.075 89.8371V53.7488C201.075 35.0053 190.103 26.8263 172.336 26.8263C163.889 26.8263 155.13 29.0288 151.099 30.9722ZM155.539 78.4721C155.539 71.8012 161.639 68.0405 170.109 68.0405C176.37 68.0405 180.809 68.881 186.92 70.3959V85.8205C185.521 86.9135 180.4 90.1228 170.811 90.1228C160.958 90.1228 155.539 85.9535 155.539 78.4721ZM11.8779 30.9722C8.13631 32.6499 7.00652 35.424 7.00652 37.7927C7.00652 42.0915 11.0405 45.2874 17.1546 43.3373C21.0423 41.9487 26.6081 40.2875 32.2836 40.2875C43.1228 40.2875 47.6984 44.3139 47.6984 53.7488V58.3201C41.3052 56.8086 36.59 55.9812 30.0639 55.9812C11.2897 55.9812 2.49075 66.2234 1.91589 77.7877V80.3357C2.51069 93.2787 11.9377 103.036 30.3331 103.036C44.7908 103.036 55.3277 97.8765 59.232 95.252C61.3088 93.8534 61.8571 92.3453 61.8571 89.8371V53.7488C61.8571 35.0053 50.885 26.8263 33.1209 26.8263C24.6509 26.8263 15.9118 29.0288 11.8779 30.9722ZM16.3305 78.4721C16.3305 71.8012 22.428 68.0405 30.8979 68.0405C37.1416 68.0405 41.5976 68.881 47.6984 70.3959V85.8205C46.3161 86.9135 41.1623 90.1228 31.5858 90.1228C21.7368 90.1228 16.3305 85.9535 16.3305 78.4721ZM282.788 35.5801V94.973C282.788 99.1389 286.264 102.484 290.148 102.484C294.308 102.484 297.525 99.1389 297.525 94.973V35.5801C297.525 31.4208 294.179 28.082 290.148 28.082C285.981 28.082 282.788 31.4208 282.788 35.5801Z" fill="url(#paint0_linear_65_4)"/>
</g>
<defs>
<linearGradient id="paint0_linear_65_4" x1="-137.064" y1="77.5623" x2="415.467" y2="29.2112" gradientUnits="userSpaceOnUse">
<stop stop-color="#00B16B"/>
<stop offset="0.350006" stop-color="#006DB6"/>
<stop offset="0.649994" stop-color="#8E278F"/>
<stop offset="0.899994" stop-color="#F04C23"/>
<stop offset="1" stop-color="#F04C23"/>
</linearGradient>
</defs>
</svg>
