<svg width="300" height="80" viewBox="0 0 300 80" fill="none" xmlns="http://www.w3.org/2000/svg">
<g clip-path="url(#clip0_65_16)">
<path fill-rule="evenodd" clip-rule="evenodd" d="M274.971 62.8959L274.544 62.9927L274.116 63.1283L273.689 63.2833L273.282 63.477L272.893 63.6901L272.505 63.9419L272.155 64.2131L271.825 64.5036L271.515 64.8329L271.243 65.1622L271.01 65.5303L270.816 65.9177L270.66 66.3051L270.563 66.7119L270.485 67.138V67.5835L270.524 68.0291L270.621 68.4746L270.777 68.9588L270.874 69.1913L270.99 69.4044L271.107 69.6368L271.262 69.8693L271.417 70.063L271.573 70.276L271.728 70.4697L271.903 70.6634L272.078 70.8571L272.252 71.0702L272.427 71.2446L272.602 71.4383L272.777 71.632L272.951 71.8257L273.146 72.0194L273.301 72.2131L273.456 72.4262L273.612 72.6392L273.767 72.8523L273.883 73.0847L274.039 73.3947L274.155 73.7046L274.233 74.0145L274.272 74.3051V74.615L274.233 74.9056L274.175 75.1768L274.078 75.4479L273.961 75.7191L273.806 75.9516L273.631 76.184L273.437 76.3971L273.223 76.5908L272.971 76.7651L272.718 76.9201L272.427 77.0557L272.136 77.1525L271.845 77.23L271.515 77.2688L271.184 77.3075L270.854 77.2881L270.544 77.2494L270.252 77.1719L269.961 77.0944L269.709 76.9782L269.456 76.8426L269.204 76.707L268.971 76.5714L268.757 76.3971L268.544 76.2421L268.33 76.0872L268.136 75.9322L267.942 75.7579L267.767 75.6223L267.573 75.4867L267.417 75.3511L267.243 75.2542L267.068 75.1768L266.913 75.1186L266.738 75.0799L266.408 75.0993L266.155 75.2542L265.981 75.5061L265.845 75.7579L265.748 76.0097L265.689 76.2228L265.67 76.4358V76.6489L265.709 76.862L265.767 77.0557L265.864 77.23L265.981 77.4044L266.116 77.5787L266.272 77.7337L266.447 77.8886L266.641 78.0436L266.835 78.1792L267.049 78.3148L267.282 78.431L267.515 78.5666L267.748 78.6828L267.981 78.799L268.349 78.954L268.718 79.0896L269.107 79.2058L269.476 79.3027L269.864 79.3995L270.252 79.477L270.641 79.5351L271.029 79.5739H271.786L272.155 79.5351L272.544 79.4964L272.932 79.4189L273.282 79.322L273.67 79.2058L274.019 79.0509L274.369 78.8765L274.718 78.6828L275.068 78.4697L275.398 78.2179L275.748 77.908L276.058 77.5981L276.33 77.2688L276.563 76.9007L276.777 76.5521L276.951 76.184L277.087 75.816L277.204 75.4479L277.282 75.0605L277.32 74.6538V74.2663L277.301 73.8789L277.243 73.4722L277.146 73.0847L277.029 72.6973L276.874 72.3099L276.699 71.9225L276.485 71.5545L276.233 71.1671L275.961 70.8184L275.806 70.6634L275.67 70.5085L275.515 70.3535L275.379 70.1792L275.204 70.0242L275.049 69.8499L274.874 69.6756L274.718 69.5012L274.563 69.3269L274.408 69.1525L274.272 68.9588L274.136 68.7651L274.019 68.5714L273.903 68.3777L273.806 68.1647L273.728 67.9709L273.67 67.7385L273.631 67.5254L273.612 67.3124L273.631 67.0799L273.67 66.8668L273.728 66.6731L273.806 66.4601L273.903 66.2857L274.039 66.1308L274.155 65.9758L274.311 65.8402L274.466 65.724L274.641 65.6078L274.816 65.4915L275.01 65.414L275.204 65.3559L275.417 65.2978L275.631 65.2591L275.825 65.2397L276.039 65.2203L276.252 65.2397L276.447 65.2591L276.66 65.2978L276.854 65.3366L277.184 65.4528L277.476 65.6271L277.786 65.8208L278.058 66.0145L278.33 66.2663L278.602 66.4794L278.854 66.7119L278.971 66.8087L279.107 66.8668L279.223 66.9249L279.34 66.9637H279.573L279.689 66.9443L279.806 66.9056L279.922 66.8668L280.019 66.8087L280.116 66.7312L280.214 66.6344L280.291 66.5569L280.388 66.4407L280.466 66.3438L280.524 66.2276L280.602 66.1114L280.66 65.9952L280.738 65.7046V65.4334L280.68 65.1622L280.563 64.9104L280.369 64.6586L280.155 64.4262L279.864 64.1937L279.553 64L279.204 63.8063L278.854 63.632L278.485 63.4576L278.097 63.3414L277.689 63.2058L277.301 63.0896L276.932 62.9927L276.563 62.9346L276.233 62.8765L275.922 62.8378L275.65 62.8184L275.417 62.8378L274.971 62.8959ZM256.854 70.9734L257.126 70.4891L257.417 69.9661L257.767 69.4625L258.136 68.9588L258.563 68.4746L258.99 68.0097L259.456 67.5254L259.961 67.0993L260.485 66.7119L261.01 66.3438L261.553 66.0145L262.136 65.724L262.718 65.4722L263.282 65.3172L263.864 65.1816L264.466 65.1235L265.049 65.1429L265.631 65.2397L266.214 65.3947L266.524 65.5109L266.777 65.6465L266.99 65.8015L267.184 65.9564L267.359 66.1308L267.515 66.3051L267.65 66.4988L267.806 66.6925L267.961 66.8862L268.116 67.0993L268.291 67.293L268.505 67.5061L268.718 67.6998L268.932 67.7385L269.243 67.6417L269.456 67.5448L269.631 67.3511L269.806 67.1186L269.961 66.8668L270.097 66.5956L270.175 66.3438L270.214 66.1308V65.9564L270.194 65.7627L270.136 65.5884L270.058 65.4334L269.981 65.2591L269.864 65.0847L269.748 64.9298L269.612 64.7748L269.456 64.6392L269.301 64.5036L269.126 64.368L268.951 64.2325L268.777 64.0969L268.602 64L268.408 63.8838L268.233 63.7676L268.058 63.6901L267.903 63.6126L267.748 63.5351L267.592 63.4576L266.854 63.1864L266.097 62.9927L265.34 62.8765L264.563 62.8378L263.786 62.8765L263.01 62.9927L262.252 63.1671L261.515 63.3995L260.757 63.6901L260.039 64.0387L259.32 64.4262L258.641 64.8717L258 65.3559L257.379 65.8789L256.796 66.4213L256.252 67.0024L255.748 67.6029L255.282 68.2228L254.874 68.862L254.544 69.5206L254.33 69.9661L254.155 70.4116L253.961 70.8765L253.806 71.3608L253.67 71.8644L253.553 72.368L253.456 72.8523L253.379 73.3559L253.34 73.8596V74.3632L253.359 74.8668L253.417 75.3511L253.534 75.8354L253.65 76.3002L253.845 76.7458L254.078 77.1719L254.35 77.5981L254.68 77.9855L255.068 78.3341L255.495 78.6828L255.825 78.8765L256.194 79.0702L256.621 79.2446L257.049 79.4189L257.515 79.5739L258.019 79.6901L258.524 79.8063L259.049 79.8838L259.573 79.9419L260.097 79.9613L260.602 79.9419L261.087 79.9032L261.573 79.8063L262.019 79.6707L262.427 79.4964L262.816 79.2639L263.146 78.9734L263.417 78.6634L263.65 78.2567L263.806 77.8111L263.845 77.54V77.4044L263.748 77.3075L263.553 77.2688L263.34 77.23L263.126 77.2107L262.913 77.23L262.699 77.2494L262.466 77.2688L262.233 77.3075L262.019 77.3656L261.786 77.4237L261.573 77.4818L261.34 77.5206L261.107 77.5787L260.874 77.6174L260.66 77.6562L260.427 77.6949H260.194L259.981 77.7143L259.748 77.6949L259.262 77.6174L258.816 77.5012L258.388 77.3462L258.019 77.1719L257.67 76.9588L257.379 76.7264L257.087 76.4552L256.854 76.1647L256.66 75.8547L256.485 75.5061L256.369 75.1574L256.252 74.7894L256.194 74.4019L256.155 73.9952L256.175 73.5884L256.194 73.1816L256.252 72.7555L256.349 72.3293L256.466 71.9032L256.641 71.477L256.854 70.9734ZM243.553 73.1041L243.437 73.2591L243.282 73.3559L243.146 73.3753L242.971 73.3172L242.816 73.2397L242.699 73.1041L242.602 72.9298L237.961 63.5545L237.883 63.4189L237.806 63.3027L237.728 63.2058L237.631 63.1477L237.534 63.109L237.417 63.0702L237.32 63.0509H237.223L237.126 63.0896L237.01 63.109L236.913 63.1671L236.816 63.2252L236.718 63.2833L236.621 63.3802L236.544 63.4576L236.447 63.5739L236.369 63.6707L236.311 63.7869L228.932 77.0363L228.699 77.5012L228.485 78.0048L228.349 78.4697V78.7022L228.369 78.8571L228.466 78.9346L228.641 79.0121L228.893 79.0509L229.049 79.0702L229.204 79.0896H229.553L229.728 79.109L229.922 79.0896L230.097 79.0702L230.291 79.0509L230.466 78.9927L230.641 78.954L230.796 78.8765L230.951 78.799L231.068 78.7022L231.204 78.5666L231.282 78.4504L236.485 69.1525L236.621 68.9976L236.816 68.9588L236.99 69.017L237.126 69.1525L241.845 78.5472L241.903 78.6634L241.981 78.7797L242.058 78.8765L242.136 78.9734L242.214 79.0509L242.311 79.109L242.408 79.1671L242.505 79.2058L242.602 79.2446H242.816L242.913 79.2252L243.01 79.2058L243.107 79.1671L243.204 79.109L243.301 79.0315L243.379 78.9346L243.476 78.8184L243.534 78.7022L251.786 63.7869L251.883 63.6126L251.922 63.4576L251.883 63.3414L251.767 63.2252L251.534 63.0896L251.398 63.0121L251.262 62.954L251.107 62.8959L250.951 62.8571L250.796 62.8378H250.466L250.311 62.8571L250.116 62.8765L249.961 62.8959L249.806 62.954L249.65 63.0121L249.495 63.0702L249.359 63.1477L249.204 63.2446L249.087 63.322L248.951 63.4383L248.854 63.5351L248.757 63.6707L248.66 63.7869L243.553 73.1041ZM245.534 77.9274L245.456 78.1017L245.398 78.276V78.4504L245.417 78.586L245.495 78.7216L245.592 78.8378L245.748 78.9153L245.942 78.9734L246.078 78.9927L246.214 79.0315L246.349 79.0509H246.66L246.816 79.0702L246.971 79.0509L247.126 79.0315L247.282 79.0121L247.437 78.9927L247.573 78.9346L247.709 78.8765L247.845 78.8184L247.981 78.7409L248.097 78.6441L248.194 78.5666L248.291 78.4504L248.369 78.3148L256.33 64.0387L256.427 63.7869L256.408 63.5351L256.33 63.2833L256.155 63.109L256 63.0121L255.845 62.954L255.689 62.8959L255.534 62.8571L255.359 62.8378H255.01L254.835 62.8765L254.66 62.9153L254.505 62.9734L254.33 63.0315L254.155 63.0896L254.019 63.1864L253.864 63.2639L253.728 63.3802L253.592 63.4964L253.476 63.6126L253.359 63.7482L253.262 63.8644L253.165 64L245.534 77.9274ZM186.757 77.3269L186.816 77.1332L186.699 76.9007L186.505 76.7458L186.291 76.7264L184 77.3656L183.612 77.4431L183.223 77.4818L182.854 77.5012L182.485 77.4625L182.116 77.385L181.767 77.2881L181.437 77.1525L181.107 76.9976L180.796 76.7845L180.505 76.5714L180.252 76.339L180.019 76.0678L179.806 75.7772L179.612 75.4673L179.476 75.138L179.359 74.7894L179.301 74.4407L179.262 74.0726V73.6852L179.32 73.2978L179.417 72.7942L179.573 72.3099L179.748 71.8063L179.942 71.3414L180.175 70.8571L180.408 70.4116L180.68 69.9467L180.971 69.5206L181.301 69.0751L181.631 68.6877L181.981 68.2809L182.369 67.9128L182.738 67.5448L183.146 67.2155L183.573 66.9056L184.019 66.615L184.466 66.3438L184.913 66.092L185.379 65.8983L185.845 65.7046L186.175 65.6078L186.485 65.5303L186.796 65.4528L187.107 65.3947L187.417 65.3559L187.748 65.3172H188.058L188.349 65.3366L188.66 65.3753L188.951 65.4334L189.243 65.5109L189.515 65.6078L189.786 65.7433L190.039 65.8789L190.272 66.0533L190.505 66.2663L190.718 66.4988L190.932 66.7506L191.107 67.0412L191.282 67.3511L191.456 67.5642L191.728 67.661H192.019L192.272 67.4867L192.641 67.0218L192.913 66.5763L193.068 66.1501L193.146 65.7627V65.3753L193.049 65.0266L192.893 64.7167L192.68 64.4262L192.408 64.155L192.078 63.9032L191.709 63.6901L191.32 63.4964L190.893 63.322L190.447 63.1864L190 63.0509L189.534 62.9734L189.087 62.9153L188.641 62.8571L188.214 62.8378L187.806 62.8571L187.243 62.9153L186.66 62.9734L186.097 63.0896L185.553 63.2252L185.029 63.3802L184.505 63.5739L183.981 63.7869L183.495 64.0194L183.01 64.2906L182.524 64.5811L182.078 64.891L181.631 65.2203L181.184 65.569L180.777 65.937L180.369 66.3245L179.981 66.7312L179.612 67.1574L179.243 67.6029L178.893 68.0291L178.563 68.494L178.272 68.9201L178 69.3656L177.748 69.8305L177.495 70.2954L177.262 70.7797L177.068 71.2639L176.874 71.7676L176.718 72.2906L176.602 72.7942L176.505 73.3366L176.447 73.8402L176.427 74.3632L176.447 74.8668L176.505 75.3898L176.602 75.8741L176.757 76.3584L176.971 76.8426L177.223 77.2881L177.534 77.753L177.922 78.1598L178.155 78.3923L178.388 78.5666L178.66 78.7603L178.932 78.9153L179.204 79.0509L179.476 79.1671L179.767 79.2833L180.078 79.3608L180.369 79.4383L180.68 79.5157L180.99 79.5545L181.32 79.5932L181.631 79.6126L181.942 79.632H182.893L183.204 79.6126L183.495 79.5932L183.806 79.5545L184 79.5351H184.214L184.447 79.4964L184.68 79.4576L184.913 79.4189L185.146 79.3608L185.359 79.2639L185.534 79.1477L185.709 79.0315L185.845 78.8378L186.757 77.3269ZM196.233 62.9346H195.922L195.67 62.954L195.495 62.9927L195.359 63.0702L195.262 63.1671L195.165 63.3027L195.068 63.4964L194.563 64.6199L194.466 64.8717L194.427 65.046L194.466 65.1622L194.602 65.2203L194.835 65.2397L196.854 65.3753L197.165 65.414L197.301 65.5303L197.359 65.8015L197.32 66.2082L197.184 66.615L191.34 76.6489L191.049 77.2494L190.796 77.8693L190.68 78.2373L190.699 78.4504L190.854 78.586L191.204 78.6828L191.34 78.7216L191.495 78.7409L191.631 78.7603H192.097L192.252 78.7409H192.408L192.544 78.7022L192.699 78.6828L192.835 78.6247L192.971 78.586L193.107 78.5085L193.223 78.431L193.34 78.3535L193.456 78.2373L193.534 78.1404L193.612 78.0048L200.136 66.7506L200.485 66.247L200.893 65.8015L201.126 65.5884L201.437 65.4722L201.689 65.4334H201.961L202.214 65.414H202.466L202.718 65.3947H203.184L203.417 65.3753H203.65L203.864 65.3366L204.078 65.2785L204.272 65.2397L204.466 65.1429L204.641 65.0266L204.816 64.891L204.99 64.7167L205.126 64.523L205.262 64.2906L205.379 64L205.495 63.6901L205.534 63.4383L205.476 63.2252L205.34 63.109L205.068 62.9927L204.485 62.8765L203.845 62.8571L203.243 62.8378L196.233 62.9346ZM172.583 62.9346H172.408L172.272 62.954L172.136 63.0121L172.039 63.0702L171.903 63.1864L171.786 63.3414L171.65 63.5351L171.495 63.7869L171.32 64.1162L163.573 77.7918L163.476 78.0048L163.437 78.1404L163.476 78.276L163.592 78.4116L163.786 78.5666L163.961 78.6828L164.155 78.7603L170.563 78.6634H170.718L170.874 78.6247L171.01 78.586L171.165 78.5085L171.32 78.431L171.456 78.3341L171.573 78.2373L171.709 78.1211L171.825 77.9855L171.922 77.8499L172.019 77.7143L172.097 77.5787L172.175 77.4431L172.214 77.2881L172.252 77.1525L172.272 76.8426L172.214 76.6683L172.039 76.5521L171.748 76.5133L168.349 76.3777L168.175 76.3196L168.039 76.1647L167.961 75.9516L167.942 75.7385L167.961 75.5254L168.019 75.3511L169.612 72.5424L169.806 72.2131L169.961 72.0194L170.116 71.8838L170.272 71.845L170.485 71.8257L174.893 71.7676L175.068 71.7288L175.262 71.632L175.417 71.477L175.592 71.2833L175.767 71.0702L175.903 70.8378L176.039 70.6247L176.116 70.431L176.175 70.2567L176.233 70.0242L176.214 69.8693L176.078 69.753L175.864 69.6368L175.612 69.54L175.359 69.5012L175.068 69.4431L174.777 69.4237H173.437L173.126 69.4431L172.816 69.4237L172.524 69.385L172.252 69.3656L172.019 69.3075L171.903 69.2107L171.883 69.017L171.942 68.707L171.981 68.5714L172.039 68.4165L172.097 68.2421L172.194 68.0678L172.291 67.8547L172.388 67.6417L172.505 67.4286L172.621 67.1961L172.757 66.9637L172.913 66.7312L173.049 66.5182L173.204 66.3051L173.359 66.1114L173.515 65.937L173.67 65.7627L173.825 65.6271L173.981 65.5109L174.116 65.414L174.272 65.3753L174.408 65.3559L178.427 65.3172L178.602 65.2785L178.738 65.2397L178.913 65.1622L179.049 65.0847L179.184 64.9685L179.301 64.8329L179.437 64.6973L179.534 64.5424L179.631 64.3874L179.709 64.2325L179.786 64.0581L179.864 63.9225L179.903 63.7482L179.961 63.6126L180 63.3802L179.942 63.2252L179.748 63.0702L179.398 62.9346L178.971 62.8765L178.583 62.8571L172.583 62.9346ZM154.485 77.6949L154.408 77.8693L154.388 78.0436V78.1986L154.447 78.3535L154.524 78.4697L154.66 78.586L154.796 78.6634L154.951 78.7216L155.146 78.7409L160.951 78.7603L161.146 78.7409L161.32 78.7022L161.495 78.6053L161.65 78.5085L161.806 78.3729L161.942 78.2179L162.058 78.063L162.175 77.908L162.291 77.7337L162.369 77.5787L162.447 77.4237L162.544 77.0751L162.505 76.8426L162.33 76.6102L162.136 76.5133L159.32 76.3584L159.146 76.339L158.99 76.2228L158.913 76.0872L158.874 75.9322L158.893 75.7385L158.932 75.5642L158.971 75.3705L159.049 75.1961L159.126 75.0412L165.417 64.1937L165.515 64L165.592 63.8063L165.612 63.5932V63.3802L165.534 63.2252L165.359 63.0896L165.223 63.0315L165.068 62.9734L164.893 62.9346L164.738 62.8959L164.563 62.8765L164.388 62.8571H164.039L163.864 62.8765L163.709 62.8959L163.534 62.954L163.359 62.9927L163.204 63.0509L163.049 63.1283L162.913 63.2058L162.777 63.2833L162.641 63.3995L162.544 63.5157L162.427 63.6513L162.349 63.7869L154.485 77.6949ZM153.126 62.954H152.971L152.835 62.9927L152.699 63.0315L152.602 63.1283L152.466 63.2639L152.33 63.477L152.175 63.7288L151.981 64.0581L144.311 77.7337L144.233 77.908L144.175 78.0436V78.3148L144.194 78.431L144.252 78.5278L144.33 78.6053L144.427 78.6828L144.524 78.7409L144.66 78.799L144.796 78.8184L144.932 78.8378L145.107 78.8571L151.922 78.7603L152.116 78.7409L152.291 78.6828L152.466 78.5666L152.602 78.4504L152.738 78.2954L152.854 78.1404L152.971 77.9467L153.068 77.7724L153.126 77.5981L153.184 77.4237L153.223 77.2494V77.0751L153.165 76.9201L153.107 76.7845L152.99 76.6683L152.835 76.5908L152.68 76.5327H152.485L149.282 76.5521H149.029L148.854 76.4746L148.738 76.3002L148.699 76.2228L148.602 76.0484L148.641 75.8354L148.796 75.4867L150.019 73.2397L150.116 73.046L150.252 72.8329L150.408 72.6005L150.602 72.3487L150.796 72.1356L150.99 71.9613L151.204 71.845L151.437 71.8063L155.845 71.7482L156.039 71.7094L156.233 71.632L156.408 71.4964L156.583 71.3414L156.738 71.1477L156.874 70.9734L156.99 70.7603L157.087 70.586L157.146 70.3923L157.184 70.1985V70.0048L157.126 69.8111L157.01 69.6562L156.835 69.5593L156.621 69.5206L153.204 69.4431L153.01 69.4044L152.874 69.3463L152.777 69.2494L152.699 69.1332L152.66 68.9976L152.641 68.8426L152.66 68.6877L152.699 68.5327L152.757 68.3777L152.835 68.2421L154.116 65.9952L154.272 65.7433L154.408 65.569L154.544 65.4528L154.699 65.3947L154.893 65.3559H155.165L159.786 65.2978L159.981 65.2203L160.175 65.0266L160.408 64.7748L160.621 64.4843L160.816 64.1743L160.951 63.9225L161.029 63.7288L161.049 63.5351L161.01 63.3802L160.932 63.2252L160.796 63.109L160.66 63.0121L160.485 62.9346L160.311 62.8959L160.116 62.8765L159.942 62.8571L153.126 62.954ZM137.087 62.9927H136.913L136.738 63.0702L136.583 63.1477L136.427 63.2639L136.291 63.3995L136.175 63.5545L136.058 63.7288L135.942 63.9032L135.864 64.0775L135.786 64.2518L135.728 64.4262L135.67 64.5811L135.592 64.8717V65.046L135.631 65.1429L135.728 65.2203L135.922 65.2397L138.233 65.4334L138.505 65.4915L138.66 65.724L138.699 65.7627L138.757 65.9564L138.718 66.2082L138.505 66.5956L132.155 77.8111L132.019 78.0823L132 78.2567L132.078 78.4504L132.155 78.5666L132.272 78.7216L132.427 78.799L132.68 78.8184L134.078 78.799L134.272 78.7797L134.447 78.7603L134.583 78.7022L134.699 78.6053L134.835 78.4697L134.951 78.276L135.107 78.0048L141.767 66.2663L141.961 65.9952L142.175 65.7627L142.408 65.5884L142.66 65.4722L142.932 65.3947L143.204 65.3172L143.495 65.2978L143.786 65.2785L144.078 65.2591H144.388L144.68 65.2397L144.971 65.2203L145.262 65.1622L145.534 65.1041L145.806 64.9685L146.039 64.8329L146.272 64.6199L146.466 64.3487L146.66 64.0387L146.816 63.632L146.854 63.3608L146.816 63.1671L146.68 63.0702L146.311 62.9927L146.116 62.9153L145.903 62.8765L137.087 62.9927ZM74.3495 77.9467L74.2718 78.1404L74.2524 78.2954L74.2913 78.4697L74.3495 78.586L74.466 78.7022L74.6019 78.7797L74.7767 78.8571H74.9514L76.3495 78.8378L76.5631 78.8184L76.7184 78.7797L76.8738 78.6828L77.0291 78.4697L77.2039 78.1792L80.5243 72.5036L80.6796 72.2324L80.8349 72.0387L80.9514 71.9032L81.0874 71.8257L81.2427 71.8063L81.4369 71.7869L86.0971 71.7288L86.5048 71.8063L86.9126 71.9225L87.2233 72.0387L87.3398 72.1743V72.4068L87.2427 72.8329L87.068 73.2591L86.8544 73.6465L84.4272 77.8305L84.3301 78.0242L84.2913 78.2373L84.3301 78.431L84.4272 78.586L84.5631 78.7216L84.7767 78.7797L84.9126 78.799L85.068 78.8184L85.2427 78.8378H85.4175L85.6116 78.8571L85.8058 78.8378L85.9806 78.8184H86.1553L86.3495 78.7603L86.5243 78.7216L86.6796 78.6441L86.8349 78.5666L86.9709 78.4697L87.0874 78.3535L87.1845 78.2373L95.4951 63.9032L95.5728 63.7288L95.6116 63.5932V63.4383L95.5728 63.3027L95.4951 63.1671L95.398 63.0702L95.2621 62.9927L95.1262 62.9346L94.9709 62.8959L94.7961 62.8765L93.5922 62.8959H93.3786L93.2039 62.9346L93.068 63.0121L92.932 63.1283L92.8155 63.3027L92.6602 63.5545L89.7281 68.6295L89.5534 68.8426L89.3204 69.0751L89.0291 69.3075L88.7184 69.4625L88.466 69.5206L83.4563 69.4818L83.165 69.4237L82.9515 69.2494L82.8738 69.017L82.8932 68.6683L83.0097 68.2421L83.2039 67.8354L85.5728 63.8838L85.6699 63.5932L85.6505 63.3414L85.4757 63.1671L85.165 63.0315L85.0097 62.9734L84.8738 62.954L84.7184 62.9346L84.5437 62.9153H84.4078L84.2524 62.8959L84.0971 62.9153L83.9417 62.9346L83.8058 62.954L83.6505 62.9927L83.5146 63.0509L83.3592 63.0896L83.2427 63.1671L83.1068 63.2252L82.9709 63.322L82.8738 63.3995L82.7573 63.4964L82.6602 63.6126L82.5631 63.7482L82.466 63.8838L74.3495 77.9467ZM115.981 77.1913L115.728 77.4625L115.495 77.7918L115.301 78.1211L115.243 78.3341L115.34 78.4697L115.65 78.5666L115.786 78.6053L115.981 78.6441H116.194L116.427 78.6828L116.68 78.6634H117.204L117.495 78.6441L117.748 78.6053L117.981 78.5666L118.194 78.5085L118.408 78.4504L118.563 78.3729L118.68 78.276L121.379 75.7191L121.592 75.5448L121.806 75.4479L122.039 75.3898L122.427 75.3705L126.233 75.3317H126.466L126.699 75.3898L126.893 75.4673L127.068 75.5835L127.204 75.7579L127.282 75.971L127.32 76.0678V76.6489L127.282 76.8232V76.9976L127.262 77.1719V77.54L127.282 77.7143V77.8886L127.32 78.0242L127.379 78.1598L127.437 78.2954L127.515 78.3923L127.612 78.4697L127.728 78.5278L127.903 78.5666H128.078L129.282 78.4697L129.515 78.431L129.689 78.3923L129.806 78.3148L129.883 78.1986L129.942 78.0242L129.981 77.7724L132.252 63.4964L132.272 63.3027L132.252 63.1671L132.175 63.0315L132.078 62.954L131.942 62.8959L131.806 62.8765H131.65L131.495 62.9153L131.359 62.954L131.223 63.0315L131.087 63.1477L115.981 77.1913ZM124.951 73.201L124.796 73.0073L124.757 72.7555L124.854 72.5424L127.32 70.1211L127.456 70.0048L127.612 69.8886L127.767 69.7918L127.922 69.753L128.058 69.7337L128.175 69.7918L128.252 69.908L128.272 70.1404L128.252 70.431L128.233 70.7797L128.214 71.1283L128.175 71.4964L128.116 71.845L128.019 72.1937L127.922 72.5036L127.786 72.7555L127.573 72.9879L127.301 73.1622L127.01 73.2397L125.165 73.2591L124.951 73.201ZM88.2524 78.1598L88.1165 78.3729L88.1553 78.6247L88.3107 78.8184L88.5631 78.8959L90.7767 78.8571L91.0485 78.8378L91.2621 78.7216L91.5728 78.4697L94.3301 75.9322L94.5825 75.7579L94.7961 75.661L95.165 75.6417L99.165 75.6029L99.5728 75.6804L99.9223 75.9322L100.078 76.184L100.155 76.4746L99.9611 78.063L99.9417 78.2567V78.5278L99.9806 78.6441L100.039 78.7022L100.116 78.7603L100.233 78.799H100.388L100.583 78.8184H100.816L102 78.799H102.252L102.427 78.7603L102.544 78.6828L102.641 78.5472L102.699 78.3535L102.738 78.0823L105.087 64L105.107 63.845V63.5157L105.087 63.3608L105.029 63.2058L104.971 63.0702L104.854 62.9734L104.738 62.9153L104.583 62.8765L104.388 62.9153L104.175 62.9927L103.981 63.1283L103.573 63.4576L103.184 63.7676L88.2524 78.1598ZM97.7864 72.8136L97.8641 72.7167L98.0582 72.4649L98.2718 72.2131L98.4854 71.9613L98.7184 71.6901L98.9514 71.4383L99.2039 71.1864L99.4563 70.954L99.7281 70.7409L99.9806 70.5279L100.233 70.3341L100.505 70.1598L100.777 70.0048L100.893 69.9855L101.01 70.1017L101.029 70.276V70.586L100.99 70.8959V71.1864L100.951 71.477L100.932 71.7676L100.893 72.0194L100.835 72.2712L100.777 72.5036L100.68 72.7167L100.583 72.9104L100.447 73.0847L100.311 73.2397L100.136 73.3753L99.9611 73.4722L99.7281 73.5496L99.4757 73.5884L99.1845 73.6078L98.8738 73.5884L98.5048 73.5496L98.1359 73.4528L97.8447 73.3753L97.6893 73.2785L97.6505 73.1429L97.7087 72.9104L97.7864 72.8136ZM224.466 62.9346L223.806 62.9927L223.165 63.109L222.524 63.2446L221.883 63.4189L221.262 63.632L220.641 63.8838L220.039 64.155L219.437 64.4649L218.854 64.7942L218.291 65.1622L217.767 65.5496L217.243 65.9564L216.757 66.4019L216.291 66.8668L215.864 67.3511L215.456 67.8547L215.068 68.3777L214.738 68.9395L214.447 69.4818L214.097 70.2954L213.806 71.109L213.612 71.9032L213.476 72.678L213.417 73.4334V74.1695L213.495 74.8668L213.67 75.5448L213.903 76.1647L214.175 76.7845L214.544 77.3462L214.99 77.8499L215.476 78.3148L216.039 78.7409L216.641 79.0896L217.34 79.3801L218.078 79.6126L218.893 79.7869L219.767 79.8838L220.699 79.9225L221.34 79.8838L221.981 79.7869L222.641 79.632L223.282 79.4383L223.922 79.2058L224.563 78.9153L225.204 78.6053L225.825 78.2179L226.427 77.8305L227.01 77.4044L227.553 76.9395L228.078 76.4552L228.582 75.9322L229.049 75.3898L229.495 74.8475L229.864 74.2663L230.233 73.6852L230.524 73.0847L230.777 72.4843L230.971 71.8838L231.146 71.1864L231.262 70.5085L231.359 69.8305L231.379 69.1525V68.5133L231.32 67.8741L231.223 67.2736L231.049 66.6925L230.854 66.1501L230.602 65.6271L230.291 65.1429L229.922 64.6973L229.534 64.2906L229.049 63.9225L228.544 63.632L227.961 63.3608L227.34 63.1671L226.641 63.0121L225.903 62.9346L225.087 62.8959L224.466 62.9346ZM223.223 65.4528L223.709 65.3559L224.194 65.2978H224.66L225.126 65.3172L225.573 65.3947L226.019 65.5109L226.427 65.6465L226.816 65.8596L227.184 66.092L227.515 66.3438L227.806 66.6344L228.078 66.9831L228.311 67.3317L228.485 67.7385L228.641 68.1647L228.738 68.6102L228.777 69.1138L228.757 69.6174L228.699 70.1598L228.602 70.586L228.485 71.0121L228.33 71.4383L228.155 71.8838L227.942 72.2906L227.709 72.7167L227.476 73.1235L227.204 73.5303L226.913 73.9177L226.602 74.3051L226.291 74.6731L225.942 75.0024L225.592 75.3511L225.223 75.661L224.854 75.9516L224.466 76.2421L224.097 76.4939L223.689 76.7264L223.301 76.9201L222.893 77.1138L222.427 77.2881L221.922 77.4237L221.417 77.5206L220.913 77.5981L220.427 77.6174H219.922L219.437 77.5593L218.971 77.4818L218.505 77.3462L218.078 77.1719L217.689 76.9782L217.32 76.7264L216.99 76.4358L216.718 76.1065L216.485 75.7385L216.311 75.3317L216.194 74.8862L216.136 74.3826V73.8402L216.214 73.2785L216.33 72.7555L216.466 72.2518L216.641 71.7482L216.835 71.2446L217.049 70.7797L217.282 70.3148L217.553 69.8499L217.845 69.4044L218.155 68.9782L218.466 68.5714L218.816 68.184L219.184 67.816L219.573 67.4479L219.961 67.1186L220.388 66.8087L220.835 66.5182L221.282 66.247L221.748 66.0145L222.233 65.8015L222.738 65.6078L223.223 65.4528ZM198.835 77.4818L198.66 77.8499L198.485 78.276L198.427 78.6828L198.466 78.9153L198.563 79.0315L198.854 79.1283L198.99 79.1671L199.126 79.1864L199.262 79.2058L199.417 79.2252H199.709L199.864 79.2058L200.019 79.1864L200.155 79.1671L200.291 79.1283L200.447 79.0896L200.583 79.0121L200.718 78.954L200.835 78.8765L200.951 78.7797L201.049 78.6828L201.146 78.5666L201.223 78.4504L204.019 73.6271L204.116 73.4915L204.214 73.3753L204.311 73.2785L204.427 73.2203L204.544 73.1816L204.641 73.1622L204.757 73.1816L204.874 73.2203L204.951 73.2785L205.049 73.3753L205.126 73.4915L205.184 73.6271L205.243 73.7821L206.388 78.3923L206.544 78.6828L206.777 78.9346L207.049 79.0896L207.34 79.1864L207.631 79.2446L207.961 79.2639L208.291 79.2446L208.582 79.2058L208.874 79.109L209.068 78.9927L209.223 78.799L209.32 78.5472V78.3341L208.33 74.1695L208.272 73.8983V73.7046L208.311 73.5496L208.388 73.4528L208.544 73.3753L208.757 73.2978L210.641 72.678L211.087 72.5036L211.515 72.2906L211.942 72.0194L212.349 71.6901L212.738 71.322L213.087 70.9346L213.417 70.5085L213.728 70.063L214 69.5787L214.233 69.0944L214.408 68.6102L214.563 68.0872L214.66 67.5835L214.699 67.0799L214.68 66.5956L214.602 66.1114L214.466 65.6271L214.272 65.1816L213.981 64.7554L213.631 64.3487L213.495 64.2325L213.34 64.0969L213.184 63.9806L213.01 63.8644L212.835 63.7676L212.66 63.6707L212.466 63.5739L212.272 63.4964L212.078 63.4189L211.883 63.3608L211.67 63.3027L211.476 63.2639L211.262 63.2446L211.087 63.2252H210.874L207.67 63.2639H207.379L207.184 63.322L207.029 63.3995L206.893 63.5351L206.738 63.7869L198.835 77.4818ZM210.311 65.6852H210.524L210.718 65.7433L210.893 65.8015L211.049 65.8789L211.165 65.9952L211.282 66.1308L211.379 66.2663L211.476 66.4019L211.534 66.5763L211.573 66.7506L211.612 66.9249L211.631 67.1186L211.65 67.3124L211.631 67.4867L211.612 67.6804L211.573 67.8741L211.534 68.0484L211.476 68.2034L211.417 68.3777L211.34 68.5133L211.184 68.7845L211.029 69.017L210.835 69.2494L210.66 69.4625L210.466 69.6756L210.252 69.8693L210.039 70.063L209.806 70.1985L209.573 70.3535L209.34 70.4891L209.087 70.6053L208.835 70.7022L208.563 70.799L208.311 70.8571L208.019 70.9153L207.748 70.9346L207.456 70.954H207.165L206.854 70.9346L206.563 70.9153L206.369 70.8378L206.233 70.7216L206.155 70.5472L206.097 70.3535V70.1404L206.136 69.9274L206.214 69.753L208.505 66.0145L208.641 65.8208L208.816 65.724L209.107 65.7046L210.311 65.6852ZM103.922 77.8499L103.864 77.9855L103.806 78.1598V78.3148L103.825 78.4697L103.883 78.6053L103.981 78.7216L104.097 78.799L104.252 78.8571L104.427 78.8959L105.631 78.8765L105.883 78.8571L106.078 78.8378L106.214 78.7603L106.369 78.6441L106.485 78.4891L106.621 78.2567L109.456 73.3947L109.553 73.2397L109.67 73.1429L109.767 73.0654L109.883 73.0073L110 72.9879H110.116L110.233 73.0073L110.33 73.0654L110.427 73.1429L110.524 73.2397L110.602 73.3559L110.68 73.4722L110.738 73.6078L110.777 73.7627L111.864 78.2373L111.922 78.4697L112 78.6247L112.078 78.7409L112.233 78.799L112.408 78.8184L112.66 78.8378L113.845 78.8184L114 78.799L114.136 78.7409L114.252 78.6634L114.35 78.5666L114.447 78.431L114.505 78.2954L114.583 78.1598L114.602 78.0048L114.621 77.8305L114.641 77.6949V77.5206L114.602 77.385L114.583 77.2494L114.524 77.1332L114.408 76.9588L114.311 76.7845L114.214 76.5908L114.116 76.3971L114.039 76.184L113.961 75.971L113.883 75.7385L113.825 75.5254L113.767 75.3124L113.709 75.0799L113.65 74.8668L113.612 74.6344L113.573 74.4213L113.553 74.1889L113.515 73.9564L113.495 73.7433V73.3366L113.515 73.0847L113.592 72.9298L113.786 72.7942L114.272 72.5811L114.777 72.4262L115.282 72.2712L115.786 72.1162L116.058 71.9806L116.33 71.845L116.621 71.6901L116.874 71.5545L117.126 71.3801L117.379 71.2058L117.612 71.0315L117.845 70.8378L118.058 70.6441L118.272 70.431L118.485 70.2179L118.66 69.9855L118.854 69.753L119.029 69.5012L119.204 69.2494L119.359 68.9976L119.515 68.7458L119.65 68.4552L119.767 68.184L119.903 67.8935L120 67.5835L120.078 67.293L120.136 66.9637L120.175 66.6538V66.3051L120.155 65.9952L120.116 65.6659L120.058 65.3366L119.981 65.0266L119.864 64.7167L119.728 64.4262L119.573 64.155L119.398 63.9032L119.184 63.6707L118.971 63.477L118.718 63.3027L118.427 63.1671L118.136 63.0509L117.825 62.9734L117.476 62.954L113.262 62.8765L112.971 62.9346L112.641 63.0896L112.349 63.3027L112.155 63.5157L103.922 77.8499ZM113.65 66.1501L113.786 65.9564L113.922 65.7821L114.097 65.6465L114.291 65.5303L114.485 65.4334L114.699 65.3559L114.932 65.2978L115.146 65.2591L115.379 65.2397H115.612L115.845 65.2785L116.058 65.3172L116.272 65.3947L116.485 65.4915L116.68 65.6078L116.854 65.7433L116.99 65.8983L117.126 66.0726L117.223 66.2663L117.301 66.4988L117.359 66.8475V67.1574L117.301 67.4867L117.165 67.816L117.01 68.1453L116.816 68.4552L116.563 68.7458L116.291 69.017L115.981 69.2881L115.67 69.54L115.32 69.7724L114.951 69.9661L114.583 70.1404L114.214 70.2954L113.845 70.4116L113.476 70.4891L113.107 70.5279H112.777L112.447 70.4891L112.136 70.4116L111.961 70.2954L111.806 70.1404L111.728 69.9661L111.689 69.753L111.709 69.54L111.786 69.3463L113.65 66.1501ZM74.7961 71.4189L74.8155 71.2446L74.932 71.0896L75.1262 70.8765L77.3592 68.862L77.5728 68.6489L77.767 68.3971L77.9417 68.1453L78.0777 67.8741L78.2136 67.5835L78.2913 67.2736L78.3689 66.9637L78.4272 66.6538L78.4466 66.3438L78.4272 66.0339L78.4078 65.724L78.3495 65.414L78.2718 65.1041L78.1553 64.8136L78.0388 64.5424L77.8641 64.2906L77.6893 64.0581L77.4757 63.8257L77.2233 63.6513L76.9709 63.477L76.7573 63.3802L76.5437 63.2833L76.3495 63.2058L76.1165 63.1477L75.9029 63.0896L75.6893 63.0315L75.4563 62.9927L75.2233 62.9734L74.9903 62.954L74.7573 62.9346H74.5243L74.2913 62.9153H72.5437L72.3495 62.8959H72.1748L72 62.9153H71.6505L71.4757 62.9346L71.301 62.9734L71.1456 62.9927L70.9903 63.0315L70.8155 63.0896L70.6796 63.1671L70.5243 63.2446L70.4078 63.322L70.2913 63.4189L70.1942 63.5545L70.0777 63.6901L61.9417 78.0242L61.8058 78.3341V78.5472L61.9417 78.7409L62.1359 78.8571L62.5243 78.9734L62.932 79.0315L70.5437 78.9346L70.8932 78.8959L71.2427 78.8378L71.5922 78.7216L71.9612 78.586L72.3301 78.3923L72.699 78.1792L73.0485 77.9467L73.3981 77.6562L73.7281 77.3656L74.0582 77.0557L74.3495 76.7264L74.6213 76.3777L74.8544 76.0291L75.068 75.661L75.2427 75.293L75.3786 74.9056L75.4563 74.5375L75.4951 74.1695L75.4757 73.8015L75.398 73.4528L74.8544 71.6513L74.7961 71.4189ZM68.0194 72.523L68.1553 72.3293L68.3301 72.155L68.5243 72L68.7379 71.9032L68.9709 71.8063L69.2233 71.7676L69.4757 71.7288H69.7476L70.0194 71.7482L70.2913 71.8063L70.5631 71.8644L70.8155 71.9419L71.0874 72.0387L71.3398 72.155L71.5728 72.2906L71.7864 72.4262L71.9806 72.5811L72.1553 72.7361L72.3107 72.9104L72.4272 73.0847L72.5048 73.2397L72.5631 73.4334L72.6019 73.6271L72.6214 73.8208V74.0145L72.6019 74.2276L72.5825 74.4213L72.5437 74.615L72.4854 74.8087L72.3883 74.9831L72.3107 75.1574L72.2136 75.293L72 75.5254L71.7864 75.7385L71.5534 75.9322L71.3204 76.1065L71.068 76.2615L70.8155 76.3971L70.5437 76.5133L70.2718 76.5908L69.9806 76.6877L69.6893 76.7651L69.398 76.8039L69.1068 76.8426L68.7961 76.862L68.5048 76.8814L68.1942 76.862H67.8835L67.5922 76.8232L67.2815 76.7845L66.9709 76.7458L66.6796 76.6877L66.3883 76.5908L66.1942 76.4165V76.2228L66.2524 75.7579L66.2718 75.6417L66.2913 75.5448L68.0194 72.523ZM72.8155 65.414L73.0485 65.3753L73.2621 65.3559H73.4951L73.7087 65.3947L73.9223 65.4334L74.1165 65.4915L74.3301 65.569L74.5048 65.6659L74.6602 65.7821L74.8155 65.9177L74.932 66.0726L75.0291 66.2082L75.1068 66.3826L75.165 66.5763L75.2039 66.77L75.1845 66.9831L75.1456 67.2155L75.068 67.4479L74.9709 67.6998L74.8544 67.9128L74.7184 68.1259L74.5437 68.3002L74.3883 68.4746L74.2136 68.6295L74.0388 68.7845L73.8252 68.9007L73.6116 69.017L73.3981 69.1138L73.2039 69.1913L72.9515 69.2688L72.7379 69.3269L72.5048 69.3656L72.2524 69.4044L72.0194 69.4237H71.534L71.301 69.4044L71.068 69.385L70.8349 69.3463L70.6019 69.2881L70.466 69.23L70.3883 69.1138L70.3689 68.9395L70.3883 68.6877L70.4078 68.5714L70.4466 68.4165L70.5048 68.2615L70.5825 68.0872L70.6602 67.8935L70.7573 67.6998L70.8738 67.4867L70.9903 67.293L71.1068 67.0799L71.2427 66.8668L71.3786 66.6731L71.5146 66.4794L71.6699 66.2857L71.8058 66.1114L71.9612 65.9564L72.0777 65.8208L72.2136 65.6852L72.3495 65.5884L72.466 65.5109L72.5825 65.4722L72.8155 65.414ZM105.825 37.4431L106.019 37.5206L106.214 37.753L106.272 37.9855L106.175 38.3729L106.019 38.7797L105.864 39.1477L99.2233 50.8281L99.1456 51.0218V51.2155L99.2039 51.3898L99.301 51.5254L99.4563 51.6417L99.631 51.6998L99.767 51.7385L99.9223 51.7579L100.058 51.7772H100.524L100.66 51.7579H100.816L100.951 51.6998L101.107 51.6804L101.243 51.6223L101.379 51.5835L101.515 51.5061L101.631 51.4286L101.767 51.3511L101.883 51.2736L101.981 51.1574L102.078 51.0605L102.175 50.9443L102.252 50.8087L109.553 38.063L109.728 37.7724L109.883 37.5787L110.019 37.4818L110.194 37.4237H110.427L117.049 37.3075L117.456 37.3462L117.864 37.4625L118.078 37.5787L118.252 37.753L118.349 37.8886L118.427 38.0242L118.485 38.1792L118.544 38.3341L118.583 38.4891V38.9734L118.563 39.1283L118.544 39.322L118.524 39.477L118.485 39.6513L118.427 39.8063L118.388 39.9806L118.33 40.1356L118.291 40.3099L118.233 40.4455L118.194 40.6005L118.155 40.7361L118.039 41.0654L117.883 41.3753L117.748 41.6852L117.573 41.9758L117.398 42.2276L117.204 42.4794L116.971 42.7312L116.738 42.9637L116.505 43.1574L116.252 43.3511L115.981 43.5254L115.709 43.6804L115.398 43.8354L115.107 43.9516L114.796 44.0291L114.485 44.1065L114.155 44.1646L113.825 44.2228H113.146L112.757 44.184L112.311 44.1453L111.883 44.0872L111.476 43.9903L111.107 43.8354L108.505 42.4019L108.272 42.3051H108.116L107.961 42.4213L107.922 42.4407L107.806 42.5763L107.786 42.7119L107.825 42.9637L107.961 43.3124L109.379 46.9734L109.728 47.5157L110.291 48.3293L110.699 48.8717L110.951 49.1429L111.184 49.3947L111.417 49.6271L111.65 49.8596L111.883 50.0533L112.116 50.247L112.349 50.4213L112.583 50.5956L112.835 50.7506L113.087 50.8862L113.34 51.0218L113.592 51.138L113.864 51.2349L114.136 51.3317L114.427 51.4286L114.738 51.4867L115.029 51.5642L115.359 51.6223L115.709 51.6804L116.058 51.7191L116.291 51.7385L116.524 51.7579L116.738 51.7772H117.359L117.573 51.7579L117.767 51.7191L117.961 51.6804L118.136 51.6223L118.311 51.5642L118.466 51.4867L118.621 51.3898L118.777 51.2736L118.913 51.1186L119.029 50.9831L119.165 50.7894L119.262 50.5956L119.359 50.3826L119.437 50.1308L119.476 49.8983L119.456 49.724L119.32 49.6271L119.029 49.5303L118.563 49.4528L118.039 49.4722L117.534 49.4915L117.029 49.4722L116.796 49.4334L116.544 49.3947L116.33 49.3559L116.097 49.3172L115.845 49.2591L115.631 49.201L115.379 49.1235L115.165 49.046L114.951 48.9492L114.718 48.8523L114.505 48.7361L114.311 48.6199L114.116 48.5036L113.922 48.3487L113.748 48.1937L113.573 48.0387L113.417 47.845L113.262 47.6707L113.146 47.4576L113.029 47.2252L112.951 46.9734L113.029 46.7409L113.223 46.6247L113.573 46.5666L114.019 46.5472L114.447 46.4891L114.874 46.431L115.282 46.3535L115.709 46.2567L116.116 46.1404L116.505 46.0242L116.893 45.8693L117.282 45.7143L117.65 45.5206L118 45.3269L118.349 45.0944L118.68 44.8426L118.99 44.5908L119.301 44.2809L119.573 43.9903L119.825 43.661L120.097 43.293L120.33 42.9056L120.524 42.5182L120.718 42.1308L120.893 41.7433L121.049 41.3172L121.184 40.9104L121.243 40.5036L121.417 38.1017L121.437 37.9467L121.456 37.8111L121.476 37.7143L121.515 37.6174L121.573 37.54L121.612 37.4818L121.709 37.4237L121.786 37.385L121.903 37.3656L122.039 37.3269L122.194 37.3075H122.388L122.602 37.2881L122.854 37.3075L138.699 37.4044L138.874 37.4431L139.068 37.54L139.204 37.6949L139.301 37.8692L139.32 38.0823L139.282 38.2567L138.369 39.8644L138.214 40.0969L138.058 40.2518L137.864 40.2906L137.534 40.3293L128.718 40.4649L128.058 40.523L127.417 40.6392L126.738 40.8523L126.078 41.1041L125.437 41.4528L124.796 41.8208L124.194 42.2663L123.612 42.7506L123.087 43.2736L122.602 43.8547L122.155 44.4358L121.786 45.0751L121.476 45.6949L121.262 46.3535L121.107 47.0121L121.049 47.6901L121.087 48.3487L121.243 49.0266L121.495 49.6659L121.864 50.3051L122.097 50.5956L122.369 50.8281L122.699 51.0605L123.049 51.2736L123.437 51.4479L123.845 51.6029L124.252 51.7191L124.699 51.816L125.146 51.8741L125.612 51.8935L126.039 51.8741L126.466 51.8354L126.893 51.7385L127.282 51.6223L127.65 51.4479L127.981 51.2542L128.272 51.0024L128.505 50.7119L128.718 50.3826L128.854 49.9758L128.893 49.7046L128.854 49.5109L128.699 49.3753L128.447 49.2978L128.291 49.2591H128.136L127.961 49.2397L127.786 49.2591L127.612 49.2784L127.417 49.2978L127.243 49.3172L127.049 49.3559H126.874L126.68 49.3947L126.505 49.414H126.155L125.981 49.3947L125.806 49.3753L125.631 49.3366L125.476 49.2784L125.32 49.201L125.165 49.1041L125.029 48.9879L124.699 48.6199L124.485 48.2324L124.35 47.8257L124.311 47.4383L124.35 47.0315L124.447 46.6441L124.621 46.2373L124.854 45.8499L125.146 45.4818L125.456 45.1138L125.825 44.7845L126.214 44.4552L126.641 44.1646L127.049 43.8935L127.495 43.661L127.942 43.4479L128.369 43.293L128.777 43.1768L129.184 43.0993L129.553 43.0605L135.379 42.983L135.689 43.0024L135.883 43.0605L136.039 43.2736L136.078 43.4673L136.058 43.7966L135.961 44.1646L135.825 44.4746L132.233 50.7506L132.155 50.9637L132.136 51.1768L132.214 51.3511L132.33 51.4867L132.505 51.5835L132.699 51.661L132.835 51.6804L132.971 51.6998L133.126 51.7191H133.262L133.417 51.7385H133.728L133.883 51.7191L134.039 51.6998L134.194 51.6804L134.35 51.6417L134.485 51.6029L134.621 51.5448L134.757 51.4867L134.893 51.4092L135.029 51.3317L135.146 51.2542L135.243 51.138L135.34 51.0412L135.417 50.9056L142.485 38.3729L142.583 38.2179L142.68 38.063L142.816 37.9467L142.951 37.8499L143.087 37.7337L143.223 37.6368L143.379 37.5593L143.534 37.4818L143.689 37.4044L143.845 37.3462L143.981 37.2688L144.136 37.2107L144.272 37.1525L144.408 37.0751L144.524 36.9976L144.641 36.9201L144.738 36.8232L144.816 36.7458L144.874 36.6295L144.932 36.5133L144.971 36.2421L144.893 36.0291L144.718 35.8935L144.485 35.8354L97.767 35.7966L97.4369 35.8741L97.1068 36.0872L96.8349 36.3196L96.7379 36.4552L96.6602 36.6102L96.6214 36.7458V36.9007L96.6602 37.0363L96.7184 37.1525L96.8349 37.23L96.9903 37.3075L97.1845 37.3269L99.8058 37.4237L99.9806 37.4431L100.116 37.4818L100.233 37.54L100.311 37.6174L100.388 37.7143L100.427 37.8305L100.447 37.9661V38.0823L100.427 38.2179L100.408 38.3535L100.349 38.4891L100.311 38.6441L100.252 38.7603L100.194 38.8765L98.1359 42.4794L97.9612 42.6538L97.7087 42.8087L97.4175 42.8862L97.1262 42.9056L96.8738 42.9249L96.5825 42.8668L96.4466 42.7506L96.3689 42.4988L96.3107 42.1889L96.2913 41.8789V41.3172L96.3107 41.046L96.3301 40.7942L96.3689 40.523L96.4078 40.2712L96.4272 40.0194V39.7676L96.4466 39.5157L96.4272 39.2639L96.3883 39.0121L96.3107 38.7409L96.2136 38.4697L96.0971 38.1792L95.9417 37.8886L95.7281 37.5787L95.4757 37.2688L95.165 36.9201L94.7961 36.5908L94.3883 36.3002L93.9223 36.0484L93.4175 35.8354L92.8738 35.6804L92.3107 35.5642L91.7476 35.4867L91.1456 35.4479H90.5437L89.9612 35.5061L89.3786 35.6029L88.8155 35.7579L88.2913 35.9516L87.7864 36.184L87.3398 36.4746L86.9126 36.8232L86.5631 37.1913L86.2718 37.6368L86.0582 38.1211L85.9029 38.6441L85.8641 38.8765L85.8447 39.109V39.3414L85.8641 39.5545L85.9029 39.7869L85.9417 40L86.0194 40.1937L86.0971 40.4068L86.1747 40.6005L86.2913 40.7748L86.4078 40.9685L86.5437 41.1235L86.699 41.2978L86.8544 41.4334L87.0291 41.569L87.2039 41.7046L87.3981 41.8208L87.6116 41.9177L87.8252 41.9952L88.0388 42.0726L88.233 42.1114L88.4272 42.1501L88.6213 42.1889L88.8155 42.2082H89.0291L89.2233 42.1889H89.4369L89.6311 42.1695L89.8058 42.1114L89.9806 42.0533L90.1553 41.9952L90.3301 41.8983L90.466 41.8015L90.6019 41.6852L90.7379 41.5496L90.8349 41.3947L90.9126 41.2203L90.9903 41.0266L91.0291 40.8136L91.0485 40.5617L91.0097 40.3099L90.8155 40.2131L90.1942 40.0969L89.5728 39.9806L89.398 39.8838L89.2039 39.7482L89.068 39.5545L88.9709 39.3801L88.932 39.2058L88.9126 39.0315L88.932 38.8959L89.0097 38.7215L89.0874 38.5666L89.2233 38.431L89.3592 38.3148L89.534 38.1985L89.7087 38.0823L89.8835 37.9661L90.0777 37.8886L90.2913 37.8111L90.4854 37.7337L90.6796 37.6755L90.8932 37.6562L91.068 37.6368H91.2427L91.3786 37.6174L91.6311 37.6562L91.8641 37.7143L92.0777 37.7918L92.2718 37.8692L92.4854 37.9661L92.6602 38.0823L92.8155 38.1985L92.9709 38.3341L93.1262 38.4891L93.2621 38.6441L93.3786 38.8184L93.4757 38.9927L93.5534 39.1864L93.6311 39.3801L93.6893 39.5932L93.7281 39.8063L93.7864 40.0194V40.2518L93.8058 40.4843L93.7864 40.7167V40.8717L93.767 41.0073L93.7476 41.1429L93.7087 41.2978L93.6893 41.4334L93.6311 41.5884L93.5922 41.724L93.534 41.8789L93.4757 42.0145L93.4175 42.1501L93.3398 42.3051L93.2621 42.4019L93.1845 42.5182L93.068 42.6344L92.9709 42.7312L92.8349 42.8087L92.7184 42.8668L92.5825 42.9249L92.4272 42.9443L92.2718 42.9637L85.4563 43.0605L84.7961 43.138L84.1747 43.2736L83.5534 43.4673L82.9903 43.7579L82.4466 44.1065L81.9417 44.5133L81.4563 44.9588L81.0485 45.4431L80.6796 45.9467L80.3883 46.4891L80.1553 47.0315L79.9806 47.5932L79.8835 48.155L79.8641 48.678L79.9417 49.2203L80.0971 49.724L80.3495 50.1889L80.699 50.615L81.165 51.0024L81.7281 51.3317L82.233 51.5448L82.7379 51.7191L83.2621 51.8547L83.7864 51.9322L84.3107 51.9709L84.8544 51.9903L85.3786 51.9516L85.9029 51.8741L86.4272 51.7772L86.9514 51.6417L87.4757 51.4867L88 51.293L88.4854 51.0993L88.9709 50.8475L89.4563 50.5763L89.9223 50.3245L90.3689 50.0145L90.8155 49.7046L91.2233 49.3753L91.6116 49.0266L91.7476 48.891L91.9029 48.7361L92.0777 48.5424L92.2524 48.3293L92.4466 48.0969L92.6408 47.8644L92.8544 47.6126L93.068 47.3608L93.2815 47.109L93.4951 46.8571L93.7087 46.6053L93.9417 46.3729L94.1553 46.1598L94.3689 45.9661L94.5825 45.7724L94.7767 45.6174L94.9709 45.5012L95.165 45.4237L95.3592 45.385L95.5146 45.3656L95.7087 45.4044L95.8641 45.4625L96 45.5593L96.0777 45.6755L96.1165 45.8111L96.0971 45.9467L96.0582 46.1404L95.9612 46.3148L93.5146 50.7312L93.3786 51.0605L93.398 51.293L93.5534 51.5254L93.8058 51.6223L94 51.661L94.1942 51.6804L94.3689 51.7191H94.5437L94.7184 51.6998L94.8932 51.6804L95.0485 51.661L95.2039 51.6223L95.3592 51.5835L95.5146 51.5254L95.6505 51.4479L95.7864 51.3705L95.9223 51.2736L96.0388 51.1574L96.1747 51.0412L96.2718 50.9249L96.4078 50.77L96.5048 50.6344L96.6214 50.4794L96.7184 50.3051L103.825 37.8499L103.961 37.6368L104.097 37.5206L104.291 37.4818L104.621 37.4625L105.825 37.4431ZM90.0777 45.2107L90.2913 45.23L90.4466 45.3075L90.5825 45.4237L90.6602 45.5593L90.6796 45.7337L90.6602 45.908L90.5825 46.1017L90.4078 46.3729L90.1942 46.6634L89.9417 46.954L89.6311 47.2639L89.301 47.5739L88.932 47.8644L88.5631 48.1743L88.1553 48.4649L87.7281 48.7167L87.301 48.9492L86.8738 49.1816L86.4272 49.3559L86 49.4915L85.5728 49.5884L85.1456 49.6465H84.7379L84.3495 49.5884L84 49.4528L83.6505 49.2591L83.3592 48.9879L83.1845 48.7554L83.0485 48.523L82.9515 48.2712L82.9126 48.0194L82.8932 47.7676L82.932 47.5157L82.9903 47.2639L83.0874 47.0121L83.2233 46.799L83.3786 46.5666L83.5534 46.3341L83.7476 46.1404L83.9612 45.9661L84.1747 45.7724L84.4078 45.6368L84.6602 45.5012L84.9126 45.4044L85.165 45.3269L85.4175 45.2688H85.6699L90.0777 45.2107ZM235.845 31.3027H235.65L235.456 31.322L235.262 31.3608L235.049 31.3995L234.816 31.4576L234.602 31.5351L234.35 31.6126L234.136 31.6901L233.903 31.7869L233.67 31.9031L233.456 32.0194L233.243 32.1356L233.029 32.2518L232.816 32.3874L232.621 32.523L232.447 32.6586L232.272 32.8136L232.136 32.9492L232 33.1041L231.903 33.2591L230.68 35.0605L230.524 35.2736L230.388 35.4479L230.252 35.5448L230.116 35.6223L229.942 35.661L229.748 35.6998H229.495L186.583 35.6804H186.33L186.116 35.6416L185.961 35.6223L185.806 35.5254L185.67 35.4092L185.534 35.2542L185.359 35.0218L183.456 32.3099L183.262 32.0775L183.107 31.9419L182.874 31.8838H180.932L180.738 31.9031L180.583 32L180.485 32.1356L180.427 32.2906L180.408 32.4649L180.447 32.6586L180.505 32.8329L180.757 33.2397L181.049 33.6271L181.34 33.9952L181.631 34.4019L181.864 34.8087L181.903 35.0024L181.922 35.1574L181.903 35.293L181.825 35.4092L181.728 35.5061L181.612 35.5642L181.456 35.6223L181.32 35.661L181.146 35.6804H180.971L150.913 35.4092L150.583 35.5061L150.272 35.7191L150.019 35.9516L149.922 36.1065L149.864 36.2615L149.845 36.3777V36.5133L149.883 36.6295L149.942 36.7264L150.039 36.8039L150.155 36.8814L150.272 36.9395L150.408 36.9782L150.563 37.017H150.738L159.146 37.0944L159.553 37.1138L159.748 37.2107L159.864 37.4431L159.883 37.7337L159.786 38.1404L159.573 38.5472L159.476 38.6828L159.34 38.7797L159.049 38.8378L158.699 38.8184L158.291 38.7603L157.883 38.6441L157.456 38.5472L157.087 38.431L156.757 38.3923L156.272 38.3341L155.786 38.276L155.301 38.2373L154.757 38.2179L154.252 38.1985H153.709L153.184 38.2179L152.641 38.2567L152.116 38.3148L151.612 38.4116L151.107 38.5278L150.602 38.6634L150.136 38.8378L149.689 39.0508L149.262 39.322L148.874 39.6126L148.505 39.9419L148.175 40.3293L147.883 40.7361L147.631 41.2203L147.379 41.8596L147.282 42.4019V42.9056L147.417 43.3124L147.65 43.6804L147.961 43.9709L148.369 44.2228L148.816 44.4358L149.32 44.6102L149.883 44.7651L150.466 44.862L151.068 44.9588L151.67 45.0169L152.291 45.0751L152.874 45.1332L153.456 45.1719L153.981 45.23L154.466 45.2688L154.893 45.3462L155.243 45.4431L155.437 45.5206L155.592 45.6174L155.748 45.7143L155.864 45.8499L155.981 45.9661L156.058 46.1017L156.136 46.2567L156.175 46.4116L156.214 46.586L156.233 46.7409V46.9153L156.214 47.0896L156.175 47.2446L156.116 47.4189L156.039 47.5739L155.961 47.7288L155.864 47.8644L155.728 48.0194L155.612 48.1356L155.456 48.2518L155.165 48.3874L154.932 48.4068L154.718 48.2518L154.524 47.9613L154.252 47.5157L153.942 47.1477L153.592 46.799L153.204 46.4891L152.777 46.2373L152.33 46.0242L151.883 45.8305L151.398 45.6949L150.913 45.5787L150.388 45.5206L149.883 45.4818L149.359 45.5012L148.854 45.5206L148.349 45.5981L147.845 45.6949L147.359 45.8499L146.913 46.0048L146.447 46.1985L146.039 46.431L145.65 46.7022L145.437 46.8959L145.262 47.1671L145.107 47.4576L145.01 47.7482L144.913 48.0775L144.835 48.3487L144.796 48.6005L144.777 48.8329V49.046L144.796 49.2784L144.835 49.4722L144.913 49.6659L144.99 49.8789L145.087 50.0533L145.204 50.247L145.32 50.4019L145.476 50.5763L145.612 50.7312L145.786 50.8668L145.942 51.0218L146.116 51.1574L146.311 51.2736L146.505 51.3898L146.699 51.5061L146.893 51.6029L147.087 51.6998L147.359 51.8547L147.515 51.9709L147.592 52.1453L147.612 52.3971L147.515 52.9007L147.417 53.4044L147.437 53.6949L147.515 53.8499L147.67 53.9467L147.922 54.0242L148.388 54.1404L148.757 54.1985L149.126 54.2373H149.437L149.709 54.2179L149.942 54.1598L150.136 54.0823L150.33 54.0048L150.485 53.8886L150.641 53.7724L150.777 53.6368L150.913 53.4818L151.049 53.3269L151.184 53.1719L151.32 53.017L151.476 52.862L151.65 52.707L151.845 52.5521L152.058 52.3971L152.311 52.2809L152.816 52.0678L153.32 51.8935L153.845 51.7191L154.369 51.5642L154.893 51.4092L155.417 51.2542L155.922 51.0605L156.272 50.9056L156.602 50.7119L156.951 50.4988L157.282 50.247L157.592 49.9758L157.903 49.6852L158.194 49.3559L158.466 49.0266L158.718 48.6973L158.932 48.3099L159.126 47.9419L159.301 47.5739L159.417 47.1671L159.495 46.7797L159.553 46.3729V45.9855L159.515 45.5981L159.417 45.1913L159.282 44.8232L159.068 44.4358L158.796 44.0484L158.485 43.7579L158.116 43.5061L157.728 43.3124L157.34 43.1768L156.893 43.0799L156.466 43.0024L156.019 42.9637L155.553 42.9443H154.621L154.155 42.9637L153.728 42.983H153.282L152.874 42.9637L152.485 42.9249L152.116 42.8475L151.786 42.7312L151.495 42.5763L151.243 42.3826L151.107 42.1695L151.049 41.9177L151.107 41.7046L151.243 41.4722L151.476 41.2397L151.709 41.0654L151.981 40.9298L152.272 40.8329L152.583 40.7554L153.068 40.6973L153.359 40.678H153.981L154.252 40.6973H154.485L154.777 40.7167L155.029 40.7361H155.301L155.573 40.7554H155.845L156.116 40.7748L156.388 40.7942L156.641 40.8136L156.932 40.8523L157.184 40.891L157.456 40.9298L157.709 40.9879L157.961 41.0654L158.233 41.1429L158.466 41.2397L158.718 41.3559L158.951 41.4722L159.184 41.6271L159.282 41.6852L159.417 41.7627L159.534 41.8402L159.689 41.8983L159.825 41.9564L159.981 41.9952L160.116 42.0339L160.252 42.0533H160.408L160.544 42.0339L160.68 42.0145L160.796 41.937L160.913 41.8596L161.029 41.7433L161.126 41.6077L163.107 37.908L163.243 37.6562L163.379 37.4625L163.495 37.3462L163.612 37.2494L163.767 37.1913L163.942 37.1719H164.155L181.806 37.23H181.981L182.116 37.2688L182.272 37.3462L182.388 37.4237L182.485 37.54L182.563 37.6562L182.621 37.7918V37.9467L182.602 38.1017L182.524 38.276L180.777 41.5496L180.641 41.724L180.505 41.8596L180.349 41.9564L180.175 42.0145L179.981 41.9952L179.806 41.9564L179.631 41.8208L179.34 41.569L179.01 41.3559L178.699 41.201L178.369 41.0654L178.019 40.9879L177.67 40.9298L177.32 40.9104H176.951L176.602 40.9298L176.233 40.9879L175.864 41.0654L175.515 41.1622L175.165 41.2785L174.796 41.3947L174.447 41.5109L174.097 41.6465L173.767 41.7821L173.437 41.9177L173.107 42.0533L172.796 42.1889L172.505 42.2276L172.233 42.0726L171.845 41.7821L171.476 41.4915L171.068 41.201L170.66 40.9685L170.214 40.7942L169.534 40.6392L168.854 40.5617H168.136L167.417 40.6392L166.68 40.7748L165.961 40.9685L165.243 41.2203L164.544 41.5303L163.883 41.8983L163.262 42.3245L162.68 42.7893L162.136 43.293L161.65 43.8354L161.243 44.4358L160.893 45.0363L160.641 45.6949L160.466 46.3535L160.388 47.0508L160.408 47.7676L160.544 48.4843L160.66 48.891L160.854 49.2591L161.087 49.6271L161.379 49.9758L161.689 50.2857L162.039 50.5763L162.408 50.8475L162.816 51.0799L163.223 51.2736L163.631 51.4286L164.058 51.5254L164.466 51.5835L164.893 51.6029L165.262 51.5448L165.65 51.4479L166 51.2736L166.311 51.0412L166.602 50.7312L166.854 50.3438L167.029 49.8983L167.107 49.6077L167.087 49.414L166.951 49.2784L166.718 49.1816L166.33 49.1235L165.961 49.1041H165.573L165.184 49.0654L164.835 48.9879L164.466 48.8136L164 48.4455L163.67 48.0387L163.515 47.5932L163.456 47.1283L163.534 46.6247L163.709 46.1404L163.981 45.6368L164.33 45.1525L164.738 44.6877L165.204 44.2809L165.689 43.8935L166.214 43.5642L166.757 43.293L167.282 43.0993L167.806 42.983L168.291 42.9637L168.757 43.0412L169.146 43.2349L169.476 43.5448L169.748 43.9903L169.806 44.184L169.825 44.3584L169.845 44.5327V44.707L169.806 44.862L169.767 45.0363L169.709 45.1913L169.65 45.3462L169.573 45.5012L169.476 45.6562L169.398 45.8111L169.32 45.9661L169.223 46.1211L169.146 46.276L169.049 46.4116L168.99 46.5666L168.932 46.7409L168.893 46.8959L168.854 47.0702V47.2446L168.874 47.477L169.01 47.5932L169.301 47.6901L169.515 47.7676L169.786 47.8063L170.078 47.845L170.369 47.8644H170.68L170.971 47.845L171.262 47.7869L171.495 47.7288L171.709 47.632L171.903 47.4964L172.078 47.3414L172.233 47.1864L172.369 47.0121L172.505 46.799L172.641 46.6053L172.757 46.3729L172.893 46.1598L173.029 45.9467L173.165 45.7143L173.301 45.4818L173.437 45.2688L173.592 45.0557L173.767 44.8426L173.961 44.6489L174.175 44.4552L174.388 44.2615L174.641 44.1065L174.932 43.9709L175.223 43.8354L175.476 43.7772L175.728 43.6998L175.981 43.6804L176.252 43.661L176.524 43.6804L176.757 43.7191L177.01 43.7579L177.262 43.8354L177.476 43.9322L177.689 44.0484L177.883 44.184L178.019 44.339L178.175 44.5133L178.272 44.707L178.349 44.9201L178.369 45.1525V45.385L178.311 45.6562L178.233 45.9274L178.078 46.2373L175.553 50.8668L175.456 51.138L175.553 51.4092L175.592 51.4673L175.728 51.661L175.883 51.7191L176.155 51.7385H177.553L177.806 51.7191L177.981 51.661L178.116 51.5642L178.272 51.3898L178.447 51.1186L185.786 38.063L185.942 37.7918L186.078 37.5787L186.194 37.4237L186.33 37.3269L186.466 37.2688L186.602 37.2494L186.816 37.23L195.223 37.2107L195.612 37.2881L195.981 37.4625L196.155 37.5981L196.194 37.753L196.155 38.0242L196.078 38.2954L195.981 38.586L195.825 38.8765L195.67 39.1283L195.476 39.3414L195.243 39.5351L195.049 39.6513L194.854 39.6901H194.505L194.097 39.6513L193.67 39.5739L193.204 39.477L192.738 39.4189L192.272 39.3608L191.845 39.3414L191.495 39.3801L191.126 39.3995L190.777 39.4576L190.427 39.5157L190.058 39.5932L189.709 39.6707L189.359 39.7676L189.01 39.8644L188.66 40L188.311 40.1162L187.981 40.2712L187.65 40.4261L187.32 40.5811L187.01 40.7554L186.68 40.9492L186.388 41.1235L186.078 41.3366L185.786 41.569L185.515 41.8015L185.243 42.0339L184.99 42.2663L184.738 42.5375L184.466 42.8087L184.214 43.0993L183.961 43.4092L183.728 43.7385L183.476 44.0678L183.262 44.4165L183.068 44.7651L182.893 45.1332L182.738 45.4818L182.621 45.8499L182.524 46.2373L182.466 46.6053L182.447 46.9927L182.466 47.3608L182.544 47.7094L182.66 48.0775L182.835 48.4455L183.049 48.8136L183.223 49.0266L183.417 49.2397L183.592 49.4528L183.786 49.6271L184 49.8015L184.214 49.9564L184.447 50.092L184.699 50.2276L184.971 50.3245L185.243 50.4019L185.515 50.4601L185.786 50.4988L186.078 50.5182H186.913L187.184 50.4794L187.456 50.4601L187.748 50.4407L188.019 50.4019L188.291 50.3632L188.563 50.3438H188.835L188.99 50.4407L189.049 50.5763L189.068 50.7894L189.087 51.0412L189.107 51.3124L189.146 51.5061L189.223 51.6223L189.359 51.6998L189.573 51.7385L190.019 51.816H190.447L190.816 51.7579L191.165 51.661L191.476 51.5448L191.748 51.3511L191.981 51.138L192.214 50.9056L192.427 50.6344L192.621 50.3438L192.796 50.0339L192.971 49.724L193.146 49.3947L193.301 49.046L193.476 48.6973L193.65 48.368L193.845 48.0194L194.039 47.7094L194.252 47.3995L194.505 47.109L194.835 46.7409L195.146 46.4116L195.456 46.0823L195.767 45.8111L196.078 45.54L196.388 45.2881L196.68 45.0557L196.99 44.8426L197.301 44.6489L197.612 44.4552L197.922 44.3002L198.252 44.1259L198.583 43.9516L198.913 43.816L199.282 43.661L199.65 43.5061L200.039 43.3705L200.447 43.2349L200.854 43.0799L201.301 42.9249L201.437 42.8668L201.553 42.8087L201.67 42.7312L201.786 42.6344L201.903 42.5375L202.019 42.4407L202.136 42.3245L202.233 42.1889L202.33 42.0533L202.408 41.937L202.505 41.7821L202.583 41.6271L202.641 41.4915L202.68 41.3366L202.738 41.201L202.757 41.046L202.777 40.9104V40.6392L202.699 40.368L202.485 40.2324L202.175 40.1743L201.786 40.1162H201.379L201.01 40.1356L200.68 40.2131L198.485 40.9298H198.272L198.097 40.7942L198 40.6005L198.058 40.3874L199.495 37.8111L199.65 37.54L199.806 37.385L199.981 37.3269L200.233 37.3075L214.874 37.2494L215.204 37.2688L215.573 37.3075L215.922 37.4237L216.194 37.5981L216.349 37.8692L216.33 38.1404L216.272 38.276L216.194 38.4116L216.136 38.5666L216.058 38.6828L215.961 38.8184L215.883 38.9346L215.786 39.0508L215.67 39.1283L215.553 39.2252L215.437 39.2833L215.301 39.3414L215.165 39.3608L215.01 39.3801H214.854L214.699 39.3414L214.33 39.2639L213.981 39.2058L213.612 39.1283L213.243 39.109L212.874 39.0702H212.505L212.155 39.0508H211.417L211.049 39.0702L210.68 39.0896L210.136 39.1283L209.592 39.1671L209.029 39.2639L208.485 39.3608L207.942 39.477L207.379 39.6513L206.854 39.8257L206.33 40.0194L205.806 40.2324L205.32 40.5036L204.835 40.7748L204.369 41.0654L203.922 41.3947L203.515 41.7627L203.126 42.1501L202.757 42.5763L202.427 43.0218L202.136 43.4867L201.883 44.0097L201.65 44.5327L201.553 44.8039L201.456 45.0944L201.398 45.3656L201.32 45.6562L201.262 45.9467L201.204 46.2567L201.184 46.5472L201.165 46.8378V47.4189L201.184 47.6901L201.243 47.9806L201.301 48.2712L201.379 48.5424L201.476 48.8329L201.592 49.0847L201.748 49.3366L201.903 49.6077L202.078 49.8402L202.291 50.0726L202.544 50.3245L202.816 50.5375L203.087 50.7312L203.379 50.9056L203.689 51.0799L203.981 51.2349L204.291 51.3705L204.602 51.5061L204.932 51.661L205.223 51.7966L205.417 51.9128L205.534 52.0291L205.573 52.1646L205.553 52.3002L205.495 52.4358L205.417 52.5714L205.282 52.6877L205.146 52.8039L205.029 52.9201L204.874 53.0751L204.757 53.2107L204.68 53.3462L204.66 53.4625L204.699 53.5981L204.835 53.6949L205.049 53.7724L205.282 53.8305L205.495 53.8693H205.709L205.922 53.8886L206.116 53.8693L206.311 53.8499L206.505 53.8111L206.68 53.753L206.854 53.7143L207.049 53.6368L207.243 53.5787L207.417 53.5012L207.612 53.4237L207.806 53.3462L208.019 53.2688L208.214 53.1913L208.485 53.1138L208.641 53.1332L208.816 53.2881L208.971 53.4431L209.126 53.5981L209.282 53.7143L209.456 53.8305L209.631 53.908L209.825 53.9467L210.019 53.9855L210.233 53.9661L210.466 53.9274L210.641 53.8693L210.816 53.753L211.029 53.4431L211.087 53.1138L211.126 52.7458L211.184 52.3777L211.34 52.0872L211.631 51.8547L211.767 51.7772L211.942 51.6804L212.097 51.6029L212.252 51.5254L212.408 51.4286L212.563 51.3317L212.718 51.2349L212.854 51.1186L212.99 51.0218L213.126 50.9056L213.243 50.7894L213.359 50.6731L213.456 50.5182L213.573 50.3826L213.65 50.2276L213.728 50.0726L213.786 49.8983L213.845 49.724L213.883 49.5303L213.903 49.3366V49.0847L213.864 48.9298L213.786 48.8523L213.65 48.8136H213.398L212.738 48.9298L212.078 49.1041L211.417 49.2784L211.068 49.3172L210.718 49.3947L210.388 49.4528L210.039 49.4722L209.709 49.5303L209.379 49.569L209.049 49.5884L208.718 49.6077H208.388L208.058 49.569L207.748 49.5496L207.437 49.5109L207.107 49.4334L206.816 49.3559L206.505 49.2397L206.214 49.1041L205.903 48.9685L205.612 48.7748L205.34 48.5811L205.049 48.3293L204.951 48.2131L204.835 48.0969L204.757 47.9806L204.68 47.8644L204.602 47.7288L204.544 47.5932L204.485 47.4576L204.447 47.322L204.408 47.1671L204.369 47.0315V46.8765L204.35 46.7215V46.2567L204.388 46.1211L204.408 45.9661L204.427 45.8111L204.485 45.6755L204.505 45.54L204.718 45.0363L204.971 44.5714L205.262 44.1453L205.592 43.7772L205.961 43.4286L206.369 43.1186L206.777 42.8475L207.223 42.615L207.709 42.4019L208.194 42.2276L208.699 42.0726L209.223 41.937L209.748 41.8402L210.272 41.7627L210.796 41.7046L211.32 41.6852L211.845 41.6659H212.349L212.854 41.6852L213.32 41.724L213.515 41.7433L213.709 41.7821L213.942 41.8208L214.155 41.8983L214.408 41.9564L214.66 42.0339L214.913 42.1114L215.165 42.1695L215.437 42.2276L215.689 42.2857L215.942 42.3438L216.194 42.3632L216.447 42.3826H216.68L216.893 42.3632L217.087 42.3051L217.282 42.2276L217.456 42.1308L217.592 41.9758L217.728 41.8015L219.65 38.3535L219.864 38.0048L220.019 37.753L220.175 37.5787L220.311 37.4818L220.466 37.4431H220.641L222.641 37.4237L222.913 37.4625L223.087 37.6755L223.107 37.7143L223.204 37.908L223.184 38.1017L223.049 38.3729L216.194 50.9637L216.078 51.2542L216.039 51.4286L216.136 51.6223H216.155L216.272 51.816L216.408 51.8935H218.466L218.621 51.8741L218.757 51.8354L218.874 51.7772L218.99 51.6998L219.087 51.5835L219.204 51.4286L219.32 51.2349L219.476 50.9831L226.563 38.1017L226.66 37.9467L226.777 37.8305L226.913 37.7143L227.049 37.6174L227.184 37.54L227.34 37.5012L227.495 37.4625L227.67 37.4044H228.194L228.349 37.4237L228.524 37.4431L228.699 37.5206L228.835 37.6368L228.932 37.8111L228.99 37.9855V38.1792L228.971 38.3923L228.893 38.5666L222.039 51.0993L221.942 51.3511L222.058 51.6029L222.116 51.7191L222.233 51.8935L222.388 51.9709H224.136L224.35 51.9516L224.505 51.9128L224.641 51.8741L224.777 51.7966L224.874 51.6804L224.971 51.5254L225.068 51.3317L232.524 37.7724L232.602 37.6368L232.699 37.54L232.796 37.4431L232.951 37.4044L233.146 37.3656L233.398 37.3269H234.116L249.748 37.4044L250 37.4237L250.194 37.5012L250.369 37.6368L250.466 37.8111L250.505 38.0436L250.466 38.2373L250.447 38.431L250.388 38.6053L250.311 38.799L250.252 38.9734L250.155 39.1477L250.058 39.322L249.942 39.477L249.806 39.632L249.67 39.7676L249.534 39.8838L249.379 40.0194L249.223 40.1162L249.068 40.2324L248.893 40.3099L248.718 40.368L248.544 40.4455L248.349 40.4843L248.175 40.5036H247.981L236.951 40.5424L236.505 40.5617L236.058 40.6199L235.631 40.6973L235.184 40.7942L234.738 40.9104L234.33 41.0847L233.922 41.2591L233.495 41.4722L233.107 41.7046L232.738 41.9564L232.349 42.2276L232.019 42.5182L231.67 42.8281L231.359 43.1574L231.068 43.5061L230.777 43.8547L230.524 44.2228L230.311 44.6102L230.097 45.0169L229.922 45.4237L229.806 45.7143L229.709 46.0242L229.631 46.3341L229.573 46.6828L229.534 47.0121L229.495 47.3414V47.6707L229.515 48L229.553 48.3487L229.612 48.678L229.67 48.9879L229.767 49.3172L229.883 49.6271L230.039 49.9177L230.214 50.1695L230.408 50.4407L230.621 50.6925L230.874 50.9056L231.146 51.1186L231.437 51.293L231.864 51.5061L232.291 51.6804L232.718 51.816L233.184 51.9322L233.67 52.0097L234.136 52.0484L234.621 52.0678H235.107L235.592 52.0291L236.058 51.9516L236.524 51.8354L236.99 51.7191L237.437 51.5448L237.864 51.3317L238.272 51.0993L238.66 50.8281L239.029 50.5182L239.359 50.1889L239.65 49.8015L239.922 49.3947L240.019 49.2203L240.136 49.0266L240.252 48.8136L240.369 48.6199L240.466 48.4068L240.583 48.1743L240.699 47.9419L240.796 47.7094L240.874 47.4964L240.951 47.2446L241.01 47.0121L241.049 46.7603L241.087 46.5278V46.2954L241.068 46.063L241.01 45.8305L240.951 45.5981L240.854 45.385L240.718 45.1913L240.563 44.9782L240.466 44.9007L240.35 44.8426L240.214 44.7651L240.058 44.707L239.903 44.6683L239.728 44.6295L239.553 44.5908L239.359 44.5714L239.165 44.5521L238.99 44.5714L238.816 44.5908L238.641 44.6102L238.485 44.6683L238.33 44.7264L238.194 44.7845L238.058 44.8814L237.961 44.9782L237.883 45.0944L237.845 45.23L237.825 45.385V45.8305L237.845 46.2373V46.6247L237.806 47.0315L237.689 47.4576L237.553 47.7288L237.417 47.9613L237.282 48.2131L237.107 48.4262L236.913 48.6392L236.718 48.8136L236.505 48.9685L236.272 49.1041L236.039 49.2397L235.786 49.3172L235.534 49.3947L235.282 49.4528L235.029 49.4722L234.777 49.4528L234.505 49.4334L234.252 49.3753L234 49.2784L233.767 49.1622L233.534 49.0073L233.301 48.8136L233.165 48.6973L233.068 48.5617L232.971 48.4068L232.874 48.2712L232.816 48.0969L232.777 47.9419L232.738 47.7676L232.718 47.6126L232.699 47.4189V47.2639L232.718 47.0896L232.738 46.8959L232.757 46.7215L232.816 46.5666L232.854 46.3923L232.913 46.2179L232.971 46.063L233.049 45.908L233.126 45.753L233.204 45.5981L233.398 45.3269L233.592 45.0751L233.806 44.8426L234.019 44.6102L234.252 44.4165L234.505 44.2421L234.757 44.0484L235.01 43.8935L235.282 43.7579L235.553 43.6416L235.845 43.5254L236.136 43.4286L236.427 43.3511L236.738 43.2736L237.029 43.2155L237.34 43.1768L237.65 43.138L237.961 43.0993H238.602L246.408 43.0605H246.583L246.718 43.0799L246.874 43.1186L247.01 43.1768L247.126 43.2542L247.243 43.3317L247.32 43.4286L247.379 43.5448L247.417 43.6804V43.816L247.379 43.9709L247.301 44.1259L243.709 50.8668L243.631 51.0218L243.592 51.2155L243.573 51.3705L243.612 51.5448L243.65 51.6804L243.767 51.7966L243.903 51.9128L244.078 51.9709L244.214 51.9903L244.35 52.0291H244.505L244.66 52.0484H244.99L245.146 52.0291L245.32 52.0097L245.476 51.9709L245.631 51.9322L245.806 51.8935L245.961 51.8354L246.097 51.7772L246.233 51.6998L246.349 51.6029L246.466 51.5061L246.544 51.3898L246.641 51.2542L253.903 37.9855L254.058 37.753L254.175 37.5981L254.311 37.5206L254.505 37.4818L254.757 37.4625L265.184 37.4237L265.379 37.5012L265.573 37.6755L265.67 37.8886L265.65 38.1985L265.573 38.4891L265.456 38.7409L265.32 38.954L265.165 39.1283L264.99 39.2639L264.796 39.3801L264.563 39.477L264.349 39.5351L264.097 39.5739L263.825 39.5932H263.573L263.301 39.5739H263.029L262.757 39.5351L262.485 39.5157L262.194 39.477L261.942 39.4576L261.689 39.4383H261.204L260.777 39.4576L260.33 39.5157L259.864 39.5739L259.379 39.6707L258.893 39.7676L258.388 39.8838L257.864 40.0387L257.359 40.1743L256.854 40.368L256.349 40.5617L255.845 40.7554L255.379 40.9879L254.913 41.2203L254.466 41.4915L254.039 41.7627L253.65 42.0533L253.262 42.3632L252.932 42.6731L252.641 43.0024L252.369 43.3705L252.136 43.7385L251.903 44.1259L251.689 44.5327L251.476 44.9588L251.282 45.4044L251.107 45.8499L250.951 46.2954L250.835 46.7215L250.757 47.1864L250.718 47.6126L250.699 48.0581L250.757 48.4649L250.835 48.8717L250.99 49.2591L251.204 49.6077L251.476 49.937L251.825 50.247L252.233 50.4988L252.718 50.7312L253.282 50.9249L253.553 50.9831L253.825 51.0412L254.097 51.0799L254.33 51.0993H254.816L255.049 51.0799L255.282 51.0605L255.515 51.0412L255.748 51.0024L255.981 50.9637L256.194 50.9249L256.427 50.8862L256.66 50.8281L256.893 50.7894L257.126 50.7506L257.379 50.7119L257.612 50.6925L257.864 50.6731L258.136 50.6538L258.349 50.6731L258.485 50.7312L258.563 50.9056L258.582 51.2155L258.602 51.4673L258.66 51.6223L258.738 51.7385L258.913 51.816L259.146 51.8741L259.301 51.9128L259.437 51.9516H259.631L259.806 51.9903L259.981 51.9709H260.544L260.718 51.9322L260.913 51.8935L261.068 51.8547L261.243 51.7772L261.398 51.7191L261.534 51.6223L261.65 51.5254L261.748 51.4092L262.136 50.8281L262.485 50.2082L262.796 49.569L263.126 48.9685L263.262 48.7167L263.417 48.4649L263.592 48.2324L263.767 48L263.961 47.7482L264.155 47.5351L264.369 47.3027L264.583 47.109L264.777 46.8959L265.01 46.6828L265.223 46.4891L265.456 46.2954L265.709 46.1017L265.942 45.9274L266.194 45.7337L266.427 45.5787L266.68 45.4044L266.913 45.2494L267.165 45.0944L267.417 44.9395L267.709 44.7651L268.019 44.6102L268.33 44.4746L268.66 44.3584L268.99 44.2228L269.34 44.1065L269.67 43.9709L270 43.8547L270.35 43.7385L270.66 43.6029L270.99 43.4673L271.282 43.3317L271.573 43.1768L271.845 43.0024L272.078 42.8281L272.291 42.615L272.485 42.4019L272.641 42.1695L272.777 41.9177L272.854 41.6077L272.893 41.3172L272.835 41.1235L272.699 40.9879L272.447 40.8523L272.233 40.8136L272 40.7748L271.748 40.7554H271.437L271.146 40.7942L270.816 40.8136L270.505 40.8717L270.194 40.9104L269.903 40.9685L269.65 41.046L269.417 41.1041L269.223 41.1816L267.728 41.7821L267.534 41.8015L267.379 41.6659L267.282 41.4915L267.301 41.3172L269.068 38.1792L269.204 37.9661L269.437 37.7724L269.689 37.5787L269.942 37.4431L270.194 37.4044L282.816 37.3656L282.99 37.385L283.126 37.4237L283.262 37.4818L283.379 37.5787L283.456 37.6949L283.534 37.8111L283.612 37.9467L283.65 38.0823L283.689 38.2373L283.709 38.4116L283.728 38.5666L283.748 38.7215V39.1477L283.728 39.3801L283.709 39.632L283.67 39.845L283.612 40.0775L283.553 40.3099L283.476 40.523L283.398 40.7361L283.282 40.9685L283.184 41.1622L283.068 41.3753L282.951 41.569L282.816 41.7627L282.68 41.937L282.524 42.1114L282.369 42.2857L282.214 42.46L282.039 42.6344L281.864 42.7893L281.67 42.9249L281.495 43.0605L281.243 43.2349L280.971 43.3898L280.718 43.5448L280.447 43.6804L280.175 43.7966L279.922 43.8935L279.65 44.0097L279.359 44.0872L279.087 44.1646L278.796 44.2034L278.524 44.2615L278.233 44.3002H277.359L277.068 44.2809L276.777 44.2421L276.485 44.2034L276.194 44.1259L275.883 44.0484L275.553 43.9128L275.204 43.7385L274.854 43.5448L274.524 43.3705L274.155 43.1961L273.825 43.0412L273.476 42.983H273.223L273.068 43.0024L272.99 43.0799L272.951 43.2155L272.971 43.4479L273.049 43.8547L273.204 44.3002L273.379 44.7458L273.573 45.1525L273.748 45.54L273.942 45.9467L274.155 46.3535L274.349 46.7603L274.582 47.1671L274.816 47.5739L275.049 47.9613L275.32 48.3487L275.573 48.7361L275.864 49.0847L276.155 49.4334L276.466 49.7627L276.796 50.0726L277.126 50.3632L277.476 50.6344L277.845 50.8862L278.233 51.0993L278.66 51.293L279.068 51.4673L279.515 51.5835L279.981 51.6804L280.272 51.7191L280.563 51.7772L280.874 51.816L281.146 51.8547L281.437 51.8741L281.728 51.8935H282.272L282.524 51.8741L282.777 51.8354L283.029 51.7579L283.282 51.6804L283.515 51.5835L283.728 51.4673L283.942 51.3124L284.136 51.138L284.311 50.9249L284.485 50.6925L284.641 50.4213L284.777 50.1114L284.874 49.7821L284.835 49.569L284.68 49.414L284.369 49.2978L284.175 49.2591L283.942 49.2397H283.689L283.398 49.2591H283.107L282.796 49.2784L282.485 49.2978H281.456L281.107 49.2784L280.777 49.2397L280.427 49.1622L280.116 49.0654L279.806 48.9492L279.495 48.7748L279.243 48.5811L278.99 48.3487L278.757 48.0581L278.544 47.7288L278.427 47.3608L278.447 47.109L278.621 46.8959L278.893 46.7797L279.32 46.6828L279.728 46.6053L280.136 46.5085L280.544 46.431L280.932 46.3148L281.34 46.1792L281.728 46.0242L282.116 45.8499L282.369 45.7143L282.641 45.54L282.913 45.3462L283.184 45.1913L283.456 45.0363L283.748 44.9201L284.019 44.862H284.311L288.738 45.4818L288.951 45.5012L289.107 45.5593L289.204 45.6174L289.243 45.7143L289.204 45.8499L289.126 46.0436L288.99 46.2954L286.311 50.9056L286.214 51.138L286.194 51.3124L286.272 51.5061L286.311 51.5448L286.427 51.7191L286.621 51.7966H288.408L288.641 51.7772L288.854 51.6998L289.068 51.5835L289.262 51.4479L289.437 51.293L289.612 51.1186L289.748 50.9249L289.864 50.7312L297.184 37.6174L297.476 37.3462L297.806 37.1719L297.981 37.1138L298.155 37.0751L298.311 37.0557L298.485 37.017L298.66 36.9782L298.816 36.9395L298.971 36.8814L299.107 36.8232L299.243 36.7458L299.379 36.6489L299.495 36.5327L299.592 36.3971L299.67 36.2421L299.748 36.0484L299.786 35.7966L299.748 35.6416L299.573 35.5061L299.223 35.3511L298.816 35.293L298.427 35.2736L258.951 35.7191H257.825L257.243 35.6804L256.68 35.6223L256.097 35.5254L255.883 35.4673L255.786 35.3705L255.728 35.2349L255.748 34.9637L255.864 34.4213L255.981 33.8983L256 33.3559L255.961 33.1622L255.922 33.0073L255.864 32.8523L255.786 32.6973L255.689 32.5424L255.592 32.4261L255.495 32.2906L255.359 32.1743L255.243 32.0581L255.087 31.9419L254.951 31.845L254.816 31.7676L254.641 31.6707L254.485 31.6126L254.33 31.5545L254.155 31.4964L253.981 31.4576L253.825 31.4383L253.65 31.4189H253.476L235.845 31.3027ZM149.883 50.2276H149.67L149.456 50.1889L149.262 50.1501L149.049 50.0726L148.874 49.9758L148.699 49.8596L148.544 49.724L148.388 49.569L148.252 49.3947L148.175 49.1816L148.136 48.8717L148.175 48.6005L148.252 48.3874L148.408 48.1937L148.602 48.0581L148.835 47.9419L149.087 47.8644L149.359 47.8257H149.65L149.942 47.8644L150.233 47.9225L150.485 48.0194L150.738 48.155L150.971 48.2906L151.146 48.4843L151.262 48.6973L151.32 48.9298L151.34 49.1816L151.262 49.4528L151.107 49.7627L151.01 49.8789L150.854 49.9952L150.485 50.1308L150.097 50.2082L149.883 50.2276ZM262.738 42.092L263.029 42.1501L263.184 42.4019L263.223 42.46L263.301 42.6538L263.262 42.8475L263.126 43.1186L260.99 46.8184L260.874 46.954L260.699 47.109L260.466 47.2639L260.155 47.4189L259.845 47.5932L259.476 47.7482L259.049 47.8838L258.641 48.0387L258.194 48.155L257.748 48.2712L257.301 48.3487L256.854 48.4068L256.408 48.4455H256L255.612 48.4262L255.243 48.3487L254.932 48.2324L254.68 48.0775L254.466 47.8644L254.311 47.6126L254.175 47.1283L254.136 46.6828L254.194 46.2179L254.35 45.7724L254.583 45.3462L254.874 44.9588L255.223 44.5521L255.65 44.184L256.078 43.8354L256.583 43.5061L257.107 43.2155L257.65 42.9443L258.194 42.7119L258.738 42.4794L259.282 42.3051L259.825 42.1695L260.33 42.0533L260.816 41.9952L261.243 41.9758H261.631L262.738 42.092ZM189.553 42.3245L189.709 42.2663L189.864 42.2082L190.039 42.1501L190.233 42.092L190.447 42.0533L190.68 42.0145L190.893 41.9758L191.146 41.937L191.359 41.8983L191.612 41.8596H191.845L192.058 41.8402L192.291 41.8208L192.485 41.8402L192.699 41.8596L192.874 41.8789L193.029 41.9177L193.165 41.9564L193.282 42.0145L193.515 42.2082L193.592 42.4988L193.553 42.8668L193.437 43.2155L193.282 43.5642L193.087 43.9128L192.913 44.2228L192.718 44.5521L192.563 44.8426L192.388 45.1525L192.214 45.4625L192.058 45.753L191.845 46.0436L191.65 46.3341L191.437 46.6053L191.204 46.8571L190.951 47.0896L190.796 47.2058L190.621 47.322L190.427 47.4383L190.233 47.5157L190.019 47.632L189.786 47.7094L189.553 47.7676L189.32 47.845L189.087 47.8838L188.835 47.9419L188.583 47.9806L188.33 48.0194L188.097 48.0387H187.612L187.379 48.0194L187.146 48L186.932 47.9613L186.738 47.9031L186.544 47.845L186.252 47.7094L186.039 47.5545L185.864 47.3801L185.767 47.1864L185.689 46.9734L185.67 46.7409L185.689 46.4891L185.748 46.2567L185.825 46.0048L185.942 45.753L186.078 45.4818L186.214 45.23L186.369 44.9782L186.544 44.7458L186.718 44.5327L186.893 44.3002L187.068 44.1065L187.223 43.9322L187.379 43.7579L187.495 43.6416L187.845 43.3317L188.214 43.0412L188.621 42.8087L189.049 42.5763L189.437 42.3632L189.553 42.3245ZM293.068 37.2107L293.282 37.2688L293.495 37.4237L293.592 37.6368L293.612 37.9274L293.573 38.063L293.515 38.2373L293.417 38.4504L293.32 38.7022L293.184 38.9734L293.029 39.2639L292.874 39.5932L292.699 39.9031L292.524 40.2131L292.33 40.5424L292.155 40.8523L291.961 41.1429L291.786 41.4334L291.612 41.6852L291.456 41.8983L291.32 42.0726L291.204 42.2276L291.107 42.3051L290.951 42.4019L290.738 42.4988L290.505 42.5763L290.233 42.6538L289.942 42.7119L289.65 42.7893L289.34 42.8281L289.049 42.8668L288.777 42.8862H288.291L288.116 42.8475L286.602 42.4988L286.447 42.4407L286.369 42.3438L286.349 42.1501L286.388 41.8015L286.874 38.1598L286.932 37.8886L286.971 37.6562L287.029 37.5012L287.107 37.385L287.184 37.3075L287.301 37.2494L287.456 37.23H287.65L293.068 37.2107ZM234.505 35.6029L234.33 35.5642L234.175 35.3705L234.155 35.1768L234.252 34.8862L234.388 34.6925L234.524 34.5182L234.68 34.3438L234.854 34.2082L235.049 34.092L235.243 33.9952L235.456 33.9177L235.689 33.8402L235.922 33.8015L236.155 33.7433L236.408 33.724L236.641 33.6852L236.893 33.6659H238.078L238.311 33.6852H238.505L251.534 33.7821L251.709 33.8015L251.864 33.8789L252.019 33.9952L252.136 34.1501L252.214 34.3051L252.272 34.4794L252.291 34.6731L252.252 34.8475L252.155 35.0605L252.019 35.2542L251.825 35.4092L251.592 35.5254L251.359 35.5642L234.505 35.6029ZM226.078 34.46L226.311 34.4407L226.544 34.4213L226.757 34.3826L226.951 34.3438L227.165 34.2663L227.379 34.1889L227.592 34.1114L227.786 33.9952L227.981 33.8983L228.155 33.7821L228.33 33.6465L228.505 33.4915L228.66 33.3366L228.816 33.1816L228.951 33.0073L229.087 32.8329L229.204 32.6392L229.301 32.4455L229.398 32.2518L229.476 32.0387L229.553 31.7288L229.515 31.4964L229.34 31.3414L229.049 31.2058L228.796 31.1477L228.544 31.109L228.33 31.0896L228.136 31.109L227.942 31.1283L227.767 31.1864L227.612 31.2446L227.456 31.322L227.301 31.4189L227.165 31.5157L227.029 31.632L226.893 31.7288L226.757 31.845L226.621 31.9806L226.485 32.0969L226.33 32.2131L226.194 32.3293L226.019 32.4455L225.845 32.5424L225.67 32.6586L225.301 32.7748L224.932 32.8329H224.544L224.175 32.8136L223.806 32.7748H223.417L223.223 32.7361L223.087 32.6586L222.99 32.4649L222.893 32.1356L222.816 31.8063L222.699 31.5351L222.447 31.322L222.214 31.2446L221.961 31.1864L221.689 31.1477H221.165L220.913 31.2058L220.66 31.2639L220.427 31.3608L220.116 31.6126L219.883 31.9419L219.767 32.1937L219.65 32.4649L219.573 32.7361L219.515 32.9879V33.2591L219.553 33.569L219.65 33.8208L219.806 34.0145L220.019 34.1695L220.408 34.3245L220.854 34.46L221.282 34.5182L226.078 34.46ZM5.02912 56.0581H3.04854L2.77669 56.0775L2.52426 56.0969L2.29126 56.1162L2.09708 56.1356H1.92232L1.76698 56.1743L1.63106 56.1937L1.51456 56.2324L1.39805 56.2712L1.32038 56.3293L1.24271 56.368L1.18446 56.4262L1.12621 56.4843L1.06795 56.5617L1.02912 56.6392L0.0582455 58.1501L-0.0194244 58.3438L0.038828 58.5375L0.17475 58.6925L0.388343 58.7312L68.6019 58.7506H68.8544L69.0291 58.6538L69.1845 58.4794L69.3786 58.1501L77.5922 43.6804L77.6699 43.4673L77.6505 43.293L77.5534 43.1574L77.3981 43.0605L77.2233 42.983L77.0097 42.9249H76.8349L57.1845 42.9056L56.8544 42.9249L56.6214 42.9637L56.466 43.0412L56.3495 43.1574L56.233 43.3705L54.4466 46.9927L54.0388 47.7482L53.5728 48.5036L53.068 49.2203L52.5048 49.9177L51.9029 50.5763L51.2621 51.2349L50.5825 51.8354L49.8835 52.4165L49.1456 52.9588L48.3883 53.4625L47.5922 53.9467L46.7767 54.3535L45.9417 54.7409L45.1068 55.0896L44.2524 55.3801L43.3786 55.632L42.5048 55.8063L41.6505 55.9613L40.7767 56.0387L39.9029 56.0775L5.02912 56.0581ZM95.3398 56.5424H94.4272L93.5146 56.5036L92.5825 56.4455L91.6699 56.4262L90.7573 56.4068L89.8447 56.4262H88.8932L87.9612 56.4455H86.0971L85.165 56.4649H83.3204L82.3689 56.4455L81.4369 56.4262H80.5243L79.5728 56.3874H79.3786L79.1262 56.368L78.8738 56.3487H78.6019L78.2913 56.3293L78 56.3099H77.6893L77.3786 56.2906H77.068L76.7573 56.3099H76.4466L76.1359 56.3487L75.8447 56.368L75.5728 56.4262L75.301 56.5036L75.0485 56.5811L74.8544 56.678L74.6602 56.7942L74.4854 56.9298L74.3495 57.0848L74.2718 57.2397L74.2136 57.414L74.1942 57.569L74.2136 57.7046L74.2718 57.8402L74.3495 57.9564L74.466 58.0339L74.6213 58.092L74.8155 58.1114L287.709 58.0145L287.981 57.9564L288.214 57.8402L288.427 57.6659L288.602 57.4722L288.718 57.2978V57.1235L288.602 56.8717L288.466 56.6005L288.33 56.4649L288.155 56.4068L287.883 56.3874L286.136 56.4068L284.369 56.4262H275.573L273.825 56.4068L272.058 56.3874L270.311 56.368L268.544 56.3487L266.796 56.3293H265.029L263.262 56.3099L261.515 56.2906L259.767 56.2712H258.019L256.252 56.2518H252.777L95.3398 56.5424ZM17.9029 28.2228H17.7476L17.6116 28.2615L17.4563 28.3002L17.301 28.3584L17.1456 28.4165L16.9903 28.4939L16.8349 28.5908L16.699 28.6877L16.5437 28.8039L16.4078 28.9395L16.2913 29.0557L16.1553 29.2107L16.0582 29.3462L15.9612 29.4818L15.8835 29.6368L15.8058 29.7724L15.767 29.9467L15.7087 30.1017V30.2567L15.6893 30.4116L15.7476 30.6634L15.9417 30.7216L16.233 30.7797L16.5437 30.8378L51.4175 30.9346H51.7864L52.1359 30.9734L52.5048 31.0315L52.8738 31.109L53.2427 31.2252L53.5922 31.3414L53.9612 31.4964L54.3107 31.6513L54.6408 31.8257L54.9709 32.0387L55.301 32.2712L55.5922 32.5036L55.8835 32.7361L56.1747 33.0073L56.4078 33.2978L56.6408 33.5884L56.8349 33.8983L57.0291 34.2276L57.165 34.5569L57.2815 34.9056L57.9417 37.1138L58.0194 37.3269L58.1165 37.4625L58.2524 37.5012L58.5048 37.5206L80.3689 37.6174H80.6019L80.7961 37.5981L80.932 37.5206L81.068 37.4237L81.1845 37.2494L81.3398 37.017L89.5728 22.5472L89.6699 22.2954L89.6311 22.0823L89.4951 21.9661L89.1845 21.8499L88.699 21.753L88.1942 21.7337L68.7379 21.753L68.5243 21.7724L68.3495 21.8692L68.1553 22.0436L65.3786 24.9879L64.8932 25.3947L64.3301 25.7627L64.0582 25.9758L63.767 26.1889L63.4757 26.3632L63.165 26.5375L62.8349 26.7119L62.5243 26.8668L62.1748 27.0218L61.8447 27.1574L61.4951 27.293L61.1262 27.4479L60.7767 27.5642L60.4272 27.6804L60.0582 27.7772L59.6893 27.8741L59.3204 27.9709L58.9515 28.0484L58.5825 28.1065L58.233 28.1646L57.8641 28.2034L57.4951 28.2421H57.1456L56.7961 28.2615L17.9029 28.2228ZM34.7961 0.251816H34.5631L34.1942 0.271186L33.767 0.290557L33.301 0.329298L32.8932 0.387409L32.5631 0.484261L32.4078 0.600484L31.4369 2.18886L31.2621 2.51816L31.2427 2.73123L31.3204 2.92494L31.4175 3.0799L31.5728 3.13801L31.8252 3.17676L32.233 3.19613L62.0971 3.23487H62.3301L62.5631 3.25424H62.7961L63.0291 3.27361H63.2621L63.4951 3.29298L63.7282 3.31235L63.9806 3.35109L64.2136 3.37046L64.4466 3.4092L64.6796 3.44794L64.932 3.50605L65.165 3.54479L65.3786 3.60291L65.6311 3.66102L65.8447 3.7385L66.0777 3.79661L66.2913 3.89346L66.5048 3.97094L66.7184 4.04843L67.2039 4.28087L67.6505 4.57143L68.0971 4.88136L68.5243 5.23002L68.9126 5.61743L69.301 6.02421L69.6505 6.45036L69.9806 6.93462L70.2718 7.41889L70.5437 7.90315L70.7767 8.42615L70.9903 8.94915L71.165 9.49153L71.301 10.0339L71.4175 10.5956L71.4757 11.138L71.5146 11.6998L71.4951 12.2421L71.4563 12.7845L71.3592 13.3075L70.7961 15.9419L70.7573 16.155L70.7961 16.2906L70.9709 16.368H71.2815L92.3301 16.5617H92.5825L92.7767 16.523L92.9126 16.4262L93.0485 16.2712L93.2039 16.0387L101.592 1.54964L101.689 1.35593L101.748 1.16223V0.968523L101.689 0.794189L101.553 0.677966L101.359 0.600484L100.427 0.523002L99.4757 0.503632L98.5437 0.484261L34.7961 0.251816Z" fill="white"/>
</g>
<defs>
<clipPath id="clip0_65_16">
<rect width="300" height="80" fill="white"/>
</clipPath>
</defs>
</svg>
