<svg width="200" height="200" viewBox="0 0 200 200" fill="none" xmlns="http://www.w3.org/2000/svg">
<g clip-path="url(#clip0_65_18)">
<path fill-rule="evenodd" clip-rule="evenodd" d="M85.9784 186.441L128.505 112.481H99.5377L113.713 87.5193H181.51L167.026 112.481H142.681L99.5377 187.673C147.92 187.365 187.365 147.92 187.365 99.8459C187.365 51.772 147.92 12.6348 99.8459 12.6348C96.4561 12.6348 92.7581 12.943 89.3683 13.2512L46.225 87.5193H99.5377L85.0539 112.481H17.8737L73.0354 16.9492C37.9045 28.0431 12.3267 61.3251 12.3267 99.8459C12.3267 143.297 44.376 179.661 85.9784 186.441ZM99.8459 0C154.7 0 200 44.9923 200 99.8459C200 155.008 155.008 200 99.8459 200C44.9923 200 0 155.008 0 99.8459C0 44.9923 44.9923 0 99.8459 0Z" fill="white"/>
</g>
<defs>
<clipPath id="clip0_65_18">
<rect width="200" height="200" fill="white"/>
</clipPath>
</defs>
</svg>
